<?xml version="1.0" encoding="UTF-8"?>
<svg width="50px" height="41px" viewBox="0 0 50 41" version="1.1" xmlns="http://www.w3.org/2000/svg" xmlns:xlink="http://www.w3.org/1999/xlink">
    <!-- Generator: Sketch 49 (51002) - http://www.bohemiancoding.com/sketch -->
    <title>BONGA LOGO</title>
    <desc>Created with Sketch.</desc>
    <defs></defs>
    <g id="pages-with-content" stroke="none" stroke-width="1" fill="none" fill-rule="evenodd">
        <g id="01-homescreen-basic" transform="translate(-250.000000, -12.000000)">
            <g id="HEADER" transform="translate(250.000000, 12.000000)">
                <g id="BONGA-LOGO">
                    <g id="Group-73">
                        <path d="M7.12512097,24.151109 L36.1525403,24.151109 L36.1525403,23.1170498 C36.1525403,21.7297177 37.2722984,20.5946649 38.6404435,20.5946649 L47.2380242,20.5946649 L47.2380242,10.2790146 C47.2380242,8.49425051 45.7702823,7.20668529 43.6468952,7.09955856 C43.6477016,7.09792303 43.6481048,7.09669639 43.6489113,7.09506087 L11.0565726,7.09506087 C10.6944758,7.09506087 10.0682661,6.98384533 9.62875,6.64938094 C9.33842742,6.42899426 8.49689516,5.75842997 8.85979839,5.75842997 L43.9239113,5.75842997 C43.9279435,5.56380278 43.9190726,5.36631341 43.8920565,5.16759741 L43.6839919,3.63511267 C43.4065726,1.58989158 41.52875,0.146951711 39.5122177,0.42867049 L7.60415323,4.88301647 C5.58762097,5.16432636 4.24568548,6.98384533 4.35576613,9.10021166 C4.35576613,9.10021166 4.37915323,10.7467741 4.37915323,11.1699656 L4.37915323,36.3365706 C4.37915323,38.8229739 6.38560484,40.8571552 10.4065726,40.8571552 L41.6186694,40.8571552 C43.7231048,40.8571552 47.2380242,38.8229739 47.2380242,36.3365706 L47.2380242,29.1002006 L38.6404435,29.1002006 C37.2722984,29.1002006 36.1525403,27.9647389 36.1525403,26.5774068 L36.1525403,25.3442228 L7.12512097,25.3442228 C6.80133065,25.3442228 6.53681452,25.075997 6.53681452,24.7476659 C6.53681452,24.4197436 6.80133065,24.151109 7.12512097,24.151109" id="Fill-1" fill="#FFFFFF"></path>
                        <path d="M46.2927419,28.2163641 L40.4794355,28.2163641 C38.6520161,28.2163641 37.1568548,26.7002346 37.1568548,24.8471874 C37.1568548,22.9945491 38.6520161,21.4784196 40.4794355,21.4784196 L46.2927419,21.4784196 C48.1197581,21.4784196 49.6149194,22.9945491 49.6149194,24.8471874 C49.6149194,26.7002346 48.1197581,28.2163641 46.2927419,28.2163641" id="Fill-3" fill="#FFFFFF"></path>
                        <path d="M40.3105242,26.9182498 C39.1806855,26.9182498 38.2564919,25.9810953 38.2564919,24.8354117 C38.2564919,23.689728 39.1806855,22.7525735 40.3105242,22.7525735 C41.4403629,22.7525735 42.3649597,23.689728 42.3649597,24.8354117 C42.3649597,25.9810953 41.4403629,26.9182498 40.3105242,26.9182498" id="Fill-5" fill="#EB002E"></path>
                        <path d="M23.2399597,24.0632814 L9.18915323,24.026891 C10.2536694,24.8818605 12.4685887,25.3635219 14.3004435,25.3238605 L26.2165726,25.3238605 C26.2165726,25.3238605 24.0968145,25.0294664 23.2399597,24.0632814" id="Fill-7" fill="#B11F24"></path>
                        <path d="M22.3799597,22.7004821 C22.3561694,22.6579586 22.3327823,22.6146172 22.3093952,22.5716847 C22.1916532,22.3553869 22.0759274,22.1337735 21.9622177,21.9043915 C21.9166532,21.8128022 21.8714919,21.7199863 21.8267339,21.6255349 C21.7154435,21.3892019 21.6057661,21.1442823 21.500121,20.888323 C21.3521371,20.5301436 21.2106048,20.1502934 21.0779435,19.7426394 C21.0214919,19.5676385 20.9658468,19.3873221 20.912621,19.2016903 C20.8771371,19.0782083 20.8424597,18.9518642 20.8085887,18.8230668 C20.7747177,18.6938605 20.7416532,18.5622009 20.7089919,18.4280881 C20.6928629,18.3606228 20.6771371,18.2927486 20.6614113,18.2244655 C20.5835887,17.8810057 20.5110081,17.5199641 20.4452823,17.1384784 C20.4190726,16.985966 20.3936694,16.8305913 20.369879,16.6711278 C20.357379,16.5913961 20.3456855,16.5108466 20.3343952,16.4298883 C20.3114113,16.2671537 20.2892339,16.1007393 20.2690726,15.9310538 C20.2380242,15.6767301 20.2093952,15.4138198 20.1839919,15.1427319 C20.1670565,14.9615978 20.1513306,14.7767837 20.1368145,14.5882897 C20.1222984,14.3993869 20.1089919,14.2068041 20.0972984,14.0097236 C20.0856048,13.813052 20.075121,13.6118827 20.06625,13.4066246 C20.057379,13.2013665 20.0497177,12.9916107 20.0436694,12.7777661 C20.0315726,12.350077 20.025121,11.9039882 20.025121,11.4394997 L0.337620968,11.4394997 C0.337620968,11.4394997 0.31625,11.6778772 0.344879032,12.1035219 C0.34891129,12.1746672 0.355362903,12.250719 0.362620968,12.3320862 C0.374717742,12.4535238 0.390040323,12.58641 0.410604839,12.7299271 C0.464637097,13.1118216 0.55375,13.5681325 0.69891129,14.0829132 C0.735201613,14.2117106 0.775120968,14.344188 0.818669355,14.4799364 C0.883991935,14.6835589 0.958185484,14.8953591 1.04205645,15.1137014 C1.18157258,15.4776052 1.34810484,15.8611352 1.54649194,16.2602028 C1.62552419,16.4196662 1.71020161,16.5819919 1.80052419,16.745953 C1.93520161,16.9929169 2.08237903,17.2443785 2.24326613,17.5003378 C2.40375,17.7562971 2.57794355,18.0167541 2.76625,18.2804821 C2.89205645,18.4563008 3.02391129,18.633755 3.16302419,18.8124359 C3.3021371,18.9911167 3.44770161,19.1714331 3.60012097,19.3525673 C3.75294355,19.5337014 3.91262097,19.7160622 4.07995968,19.8988318 C4.66504032,20.5399567 5.34125,21.1913036 6.12229839,21.8426505 C6.45697581,22.121916 6.81100806,22.4015904 7.18520161,22.6800381 C7.79245968,23.1322601 8.45455645,23.5820289 9.17391129,24.026891 L23.1477016,24.026891 C22.89125,23.5930686 22.632379,23.1584285 22.3799597,22.7004821" id="Fill-9" fill="#EB002E"></path>
                        <path d="M9.17391129,24.0269319 C9.19326613,24.0630096 9.21221774,24.0990873 9.23197581,24.1339624 L23.1694758,24.1339624 C23.1618145,24.0978847 23.1549597,24.0630096 23.1477016,24.0269319 L9.17391129,24.0269319 Z" id="Fill-11" fill="#EB002E"></path>
                        <path d="M7.1853629,22.6799154 C6.81076613,22.4014677 6.45673387,22.1217933 6.12205645,21.8429367 C5.34141129,21.1911809 4.66520161,20.539834 4.08012097,19.899118 C3.91278226,19.7159395 3.75270161,19.5335787 3.59987903,19.3524446 C3.44745968,19.1713105 3.30189516,18.991403 3.16278226,18.8127221 C3.02407258,18.6336324 2.89221774,18.4561782 2.76641129,18.2803595 C2.57770161,18.0166315 2.40391129,17.7561745 2.24302419,17.5006241 C2.08254032,17.2446648 1.93495968,16.9927943 1.80068548,16.7462392 C1.7103629,16.5818692 1.62568548,16.4195436 1.54665323,16.2600801 C1.3478629,15.8610126 1.18133065,15.4774825 1.04221774,15.1135787 C0.958346774,14.8952364 0.884153226,14.6834363 0.818830645,14.4798137 C0.775282258,14.3440653 0.735362903,14.211588 0.699072581,14.0827906 C0.55391129,13.5680098 0.464798387,13.1121079 0.410362903,12.7298044 C0.389798387,12.5862873 0.374475806,12.4534011 0.362782258,12.3319636 C0.355524194,12.2505963 0.349072581,12.1745445 0.344637097,12.1033993 C0.31641129,11.6777545 0.337782258,11.4393771 0.337782258,11.4393771 L20.0252823,11.4393771 C20.0252823,11.9042744 20.0313306,12.3499543 20.0438306,12.7776435 C20.0494758,12.9918969 20.0575403,13.2012438 20.0660081,13.4065019 C20.0752823,13.61176 20.0853629,13.8129293 20.0970565,14.0096009 C20.1091532,14.2066814 20.1224597,14.3996731 20.1365726,14.5881671 C20.1510887,14.7766611 20.1668145,14.961884 20.18375,15.1426093 C20.2095565,15.4136971 20.2377823,15.6766074 20.2688306,15.9313401 C20.2893952,16.1010255 20.3115726,16.2670311 20.3341532,16.4297656 C20.3458468,16.5111328 20.3575403,16.5912735 20.3696371,16.6710052 C20.3938306,16.8304686 20.4188306,16.9862522 20.4454435,17.1387647 C20.5111694,17.5198414 20.58375,17.881292 20.6615726,18.2243428 C20.6772984,18.2930348 20.6930242,18.360909 20.7091532,18.4279654 C20.7414113,18.5624871 20.7744758,18.6937378 20.8083468,18.8229441 C20.8422177,18.9517415 20.8772984,19.0780857 20.9127823,19.2019765 C20.9660081,19.3876083 21.02125,19.5675158 21.0781048,19.7425167 C21.2107661,20.1501708 21.3522984,20.5304298 21.5002823,20.8886093 C21.6059274,21.1445685 21.7152016,21.3890792 21.8268952,21.6254122 C21.8716532,21.7198636 21.9164113,21.8126796 21.9619758,21.9046777 C22.0760887,22.1340598 22.1918145,22.3556731 22.3095565,22.5715621 C22.3325403,22.6144945 22.3563306,22.6578359 22.380121,22.7003595 C22.6325403,23.1583058 22.8910081,23.592946 23.1478629,24.0267684 L23.5321371,24.0267684 L23.4518952,23.8914289 L23.374879,23.7618137 C21.8902016,21.2521042 20.3547177,18.6569386 20.3547177,11.4393771 L20.3547177,11.1053216 L20.0252823,11.1053216 L0.337782258,11.1053216 L0.0365725806,11.1053216 L0.00955645161,11.4095288 C0.00310483871,11.4819006 -0.137217742,13.2171902 0.920040323,15.6925537 C1.53576613,17.1334492 2.43334677,18.5310033 3.58858871,19.8471902 C4.91157258,21.3551421 6.57971774,22.7592383 8.55028226,24.0267684 L9.17407258,24.0267684 C8.45431452,23.5823151 7.79262097,23.1321375 7.1853629,22.6799154" id="Fill-13" fill="#FFFFFF"></path>
                        <path d="M1.05260369,15.2504239 C0.924032258,14.8511639 0.806175115,14.4615247 0.699032258,14.0827088 C0.806175115,14.4615247 0.924032258,14.8511639 1.05260369,15.2504239" id="Fill-15" fill="#FFFFFF"></path>
                        <path d="M0.503339094,13.5020838 C0.442624808,13.0799747 0.397386713,12.6891328 0.362862903,12.3319636 C0.397386713,12.6891328 0.442624808,13.0799747 0.503339094,13.5020838" id="Fill-17" fill="#FFFFFF"></path>
                        <path d="M1.26274386,14.0828315 C0.834172427,13.5680507 0.571077189,13.1117399 0.410362903,12.7298453 C0.571077189,13.1117399 0.834172427,13.5680507 1.26274386,14.0828315" id="Fill-19" fill="#FFFFFF"></path>
                        <path d="M20.0437097,12.7777253 C20.0615668,13.1866685 20.0841859,13.5877925 20.1103763,13.9803154 C20.0841859,13.5877925 20.0615668,13.1866685 20.0437097,12.7777253" id="Fill-21" fill="#FFFFFF"></path>
                        <path d="M20.0972581,14.0097645 C20.1317819,14.4185602 20.1710676,14.8197068 20.2139247,15.2123547 C20.1710676,14.8197068 20.1317819,14.4185602 20.0972581,14.0097645" id="Fill-23" fill="#FFFFFF"></path>
                        <path d="M0.398208525,12.7756063 C0.375589478,12.5362908 0.357732335,12.3126091 0.344637097,12.1033584 C0.357732335,12.3126091 0.375589478,12.5362908 0.398208525,12.7756063" id="Fill-25" fill="#FFFFFF"></path>
                        <path d="M4.7906778,20.5549121 C4.37551174,20.15195 3.97835287,19.7507867 3.60020161,19.3523219 C3.97835287,19.7507867 4.37551174,20.15195 4.7906778,20.5549121" id="Fill-27" fill="#FFFFFF"></path>
                        <path d="M1.47819316,15.6824448 C1.23057412,15.2681331 1.0115265,14.8662352 0.818669355,14.4798546 C1.0115265,14.8662352 1.23057412,15.2681331 1.47819316,15.6824448" id="Fill-29" fill="#FFFFFF"></path>
                        <path d="M7.31253264,23.0455269 C6.8931347,22.6454468 6.49676075,22.2436043 6.12205645,21.8429367 C6.49676075,22.2436043 6.8931347,22.6454468 7.31253264,23.0455269" id="Fill-31" fill="#FFFFFF"></path>
                        <path d="M2.29645161,17.4629974 C2.02978495,17.0560603 1.77978495,16.6551969 1.54645161,16.2604072 C1.77978495,16.6551969 2.02978495,17.0560603 2.29645161,17.4629974" id="Fill-33" fill="#FFFFFF"></path>
                        <path d="M3.43350038,18.7028871 C3.0042686,18.2963511 2.60897181,17.8948575 2.24302419,17.5002969 C2.60897181,17.8948575 3.0042686,18.2963511 3.43350038,18.7028871" id="Fill-35" fill="#FFFFFF"></path>
                        <path d="M0.35254486,11.4394588 C0.35254486,11.4394588 0.289449622,11.8711769 0.373973432,12.642049 C0.289449622,11.8711769 0.35254486,11.4394588 0.35254486,11.4394588" id="Fill-37" fill="#FFFFFF"></path>
                        <path d="M21.5002823,20.8884457 C21.812187,21.3062157 22.1348061,21.7059668 22.464568,22.0910359 C22.1348061,21.7059668 21.812187,21.3062157 21.5002823,20.8884457" id="Fill-39" fill="#FFFFFF"></path>
                        <path d="M20.183871,15.1425684 C20.258871,15.5565237 20.3433948,15.9567637 20.4350614,16.3451586 C20.3433948,15.9567637 20.258871,15.5565237 20.183871,15.1425684" id="Fill-41" fill="#FFFFFF"></path>
                        <path d="M21.0781452,19.7424759 C21.4510928,20.1706546 21.8513293,20.5692298 22.2686214,20.945066 C21.8513293,20.5692298 21.4522298,20.1706546 21.0781452,19.7424759" id="Fill-43" fill="#FFFFFF"></path>
                        <path d="M23.2119873,24.1339216 C23.1893683,24.0978438 23.1691302,24.0629687 23.1477016,24.026891 C23.1691302,24.0629687 23.1893683,24.0978438 23.2119873,24.1339216" id="Fill-45" fill="#FFFFFF"></path>
                        <path d="M23.5705568,24.0269319 C23.1722725,23.5927006 22.7714872,23.1580605 22.3800806,22.700523 C22.7714872,23.1580605 23.1722725,23.5927006 23.5705568,24.0269319" id="Fill-47" fill="#FFFFFF"></path>
                        <path d="M21.9621774,21.9044733 C22.2978917,22.3181171 22.6395584,22.7177516 22.9871774,23.1070635 C22.6395584,22.7177516 22.2978917,22.3181171 21.9621774,21.9044733" id="Fill-49" fill="#FFFFFF"></path>
                        <path d="M20.2689516,15.9311765 C20.3296659,16.3405899 20.3939516,16.742111 20.4618088,17.1337667 C20.3939516,16.742111 20.3296659,16.3405899 20.2689516,15.9311765" id="Fill-51" fill="#FFFFFF"></path>
                        <path d="M20.3697581,16.671087 C20.4411866,17.0810609 20.5149962,17.4815739 20.5923771,17.8736772 C20.5149962,17.4815739 20.4411866,17.0810609 20.3697581,16.671087" id="Fill-53" fill="#FFFFFF"></path>
                        <path d="M20.7091532,18.4279654 C20.8043913,18.8236176 20.9020104,19.209649 21.0020104,19.5896675 C20.9020104,19.209649 20.8043913,18.8236176 20.7091532,18.4279654" id="Fill-55" fill="#FFFFFF"></path>
                        <path d="M20.9127419,19.201813 C21.0698848,19.6148053 21.2341705,20.015972 21.4008372,20.4044031 C21.2341705,20.015972 21.0698848,19.6148053 20.9127419,19.201813" id="Fill-57" fill="#FFFFFF"></path>
                        <path d="M20.4453629,17.138642 C20.6394105,17.5612471 20.8536962,17.9612046 21.0834581,18.3412322 C20.8536962,17.9612046 20.6394105,17.5612471 20.4453629,17.138642" id="Fill-59" fill="#FFFFFF"></path>
                        <g id="Group-66" transform="translate(4.032258, 36.390379)" fill="#BCBCBC">
                            <polygon id="Fill-61" points="0.323387097 1.14847364 1.51386329 1.14847364 1.51386329 0.49306198 0.323387097 0.49306198"></polygon>
                            <path d="M1.66330645,1.14847364 L3.02459677,1.14847364 L3.02459677,0.49306198 L1.66330645,0.49306198 L1.66330645,1.14847364 Z M3.70564516,1.14847364 L5.06693548,1.14847364 L5.06693548,0.49306198 L3.70564516,0.49306198 L3.70564516,1.14847364 Z" id="Fill-63"></path>
                            <path d="M5.74758065,1.14847364 L7.10887097,1.14847364 L7.10887097,0.49306198 L5.74758065,0.49306198 L5.74758065,1.14847364 Z M7.78991935,1.14847364 L9.15120968,1.14847364 L9.15120968,0.49306198 L7.78991935,0.49306198 L7.78991935,1.14847364 Z M9.83185484,1.14847364 L11.1935484,1.14847364 L11.1935484,0.49306198 L9.83185484,0.49306198 L9.83185484,1.14847364 Z M11.8741935,1.14847364 L13.2358871,1.14847364 L13.2358871,0.49306198 L11.8741935,0.49306198 L11.8741935,1.14847364 Z M13.916129,1.14847364 L15.2778226,1.14847364 L15.2778226,0.49306198 L13.916129,0.49306198 L13.916129,1.14847364 Z M15.9584677,1.14847364 L17.3197581,1.14847364 L17.3197581,0.49306198 L15.9584677,0.49306198 L15.9584677,1.14847364 Z M18.0008065,1.14847364 L19.3620968,1.14847364 L19.3620968,0.49306198 L18.0008065,0.49306198 L18.0008065,1.14847364 Z M20.0427419,1.14847364 L21.4040323,1.14847364 L21.4040323,0.49306198 L20.0427419,0.49306198 L20.0427419,1.14847364 Z M22.0850806,1.14847364 L23.446371,1.14847364 L23.446371,0.49306198 L22.0850806,0.49306198 L22.0850806,1.14847364 Z M24.1270161,1.14847364 L25.4887097,1.14847364 L25.4887097,0.49306198 L24.1270161,0.49306198 L24.1270161,1.14847364 Z M26.1693548,1.14847364 L27.5310484,1.14847364 L27.5310484,0.49306198 L26.1693548,0.49306198 L26.1693548,1.14847364 Z M28.2116935,1.14847364 L29.5729839,1.14847364 L29.5729839,0.49306198 L28.2116935,0.49306198 L28.2116935,1.14847364 Z M30.2540323,1.14847364 L31.6153226,1.14847364 L31.6153226,0.49306198 L30.2540323,0.49306198 L30.2540323,1.14847364 Z M32.2959677,1.14847364 L33.6572581,1.14847364 L33.6572581,0.49306198 L32.2959677,0.49306198 L32.2959677,1.14847364 Z M34.3383065,1.14847364 L35.6995968,1.14847364 L35.6995968,0.49306198 L34.3383065,0.49306198 L34.3383065,1.14847364 Z M36.3802419,1.14847364 L37.7419355,1.14847364 L37.7419355,0.49306198 L36.3802419,0.49306198 L36.3802419,1.14847364 Z M38.4221774,1.14847364 L39.783871,1.14847364 L39.783871,0.49306198 L38.4221774,0.49306198 L38.4221774,1.14847364 Z M40.4649194,1.14847364 L41.8262097,1.14847364 L41.8262097,0.49306198 L40.4649194,0.49306198 L40.4649194,1.14847364 Z" id="Fill-64"></path>
                            <polygon id="Fill-65" points="42.5068548 1.14847364 43.697331 1.14847364 43.697331 0.49306198 42.5068548 0.49306198"></polygon>
                        </g>
                        <g id="Group-72" transform="translate(4.032258, 9.813136)" fill="#BCBCBC">
                            <polygon id="Fill-67" points="0.323387097 0.917576318 1.51386329 0.917576318 1.51386329 0.262164662 0.323387097 0.262164662"></polygon>
                            <path d="M1.66330645,0.917576318 L3.02459677,0.917576318 L3.02459677,0.262164662 L1.66330645,0.262164662 L1.66330645,0.917576318 Z M3.70564516,0.917576318 L5.06693548,0.917576318 L5.06693548,0.262164662 L3.70564516,0.262164662 L3.70564516,0.917576318 Z" id="Fill-69"></path>
                            <path d="M5.74758065,0.917576318 L7.10887097,0.917576318 L7.10887097,0.262164662 L5.74758065,0.262164662 L5.74758065,0.917576318 Z M7.78991935,0.917576318 L9.15120968,0.917576318 L9.15120968,0.262164662 L7.78991935,0.262164662 L7.78991935,0.917576318 Z M9.83185484,0.917576318 L11.1935484,0.917576318 L11.1935484,0.262164662 L9.83185484,0.262164662 L9.83185484,0.917576318 Z M11.8741935,0.917576318 L13.2358871,0.917576318 L13.2358871,0.262164662 L11.8741935,0.262164662 L11.8741935,0.917576318 Z M13.916129,0.917576318 L15.2778226,0.917576318 L15.2778226,0.262164662 L13.916129,0.262164662 L13.916129,0.917576318 Z M15.9584677,0.917576318 L17.3197581,0.917576318 L17.3197581,0.262164662 L15.9584677,0.262164662 L15.9584677,0.917576318 Z M18.0008065,0.917576318 L19.3620968,0.917576318 L19.3620968,0.262164662 L18.0008065,0.262164662 L18.0008065,0.917576318 Z M20.0427419,0.917576318 L21.4040323,0.917576318 L21.4040323,0.262164662 L20.0427419,0.262164662 L20.0427419,0.917576318 Z M22.0850806,0.917576318 L23.446371,0.917576318 L23.446371,0.262164662 L22.0850806,0.262164662 L22.0850806,0.917576318 Z M24.1270161,0.917576318 L25.4887097,0.917576318 L25.4887097,0.262164662 L24.1270161,0.262164662 L24.1270161,0.917576318 Z M26.1693548,0.917576318 L27.5310484,0.917576318 L27.5310484,0.262164662 L26.1693548,0.262164662 L26.1693548,0.917576318 Z M28.2116935,0.917576318 L29.5729839,0.917576318 L29.5729839,0.262164662 L28.2116935,0.262164662 L28.2116935,0.917576318 Z M30.2540323,0.917576318 L31.6153226,0.917576318 L31.6153226,0.262164662 L30.2540323,0.262164662 L30.2540323,0.917576318 Z M32.2959677,0.917576318 L33.6572581,0.917576318 L33.6572581,0.262164662 L32.2959677,0.262164662 L32.2959677,0.917576318 Z M34.3383065,0.917576318 L35.6995968,0.917576318 L35.6995968,0.262164662 L34.3383065,0.262164662 L34.3383065,0.917576318 Z M36.3802419,0.917576318 L37.7419355,0.917576318 L37.7419355,0.262164662 L36.3802419,0.262164662 L36.3802419,0.917576318 Z M38.4221774,0.917576318 L39.783871,0.917576318 L39.783871,0.262164662 L38.4221774,0.262164662 L38.4221774,0.917576318 Z M40.4649194,0.917576318 L41.8262097,0.917576318 L41.8262097,0.262164662 L40.4649194,0.262164662 L40.4649194,0.917576318 Z" id="Fill-70"></path>
                            <polygon id="Fill-71" points="42.5068548 0.917576318 43.697331 0.917576318 43.697331 0.262164662 42.5068548 0.262164662"></polygon>
                        </g>
                    </g>
                    <path d="M29.6211054,30.8510638 C30.0497375,30.8510638 30.3220132,31.0138227 30.3220132,31.2685757 C30.3220132,31.4407699 30.1953107,31.5799406 29.9958215,31.627117 C30.2357476,31.6695759 30.3840166,31.8323348 30.3840166,32.044629 C30.3840166,32.3276879 30.1009577,32.5045997 29.6561508,32.5045997 L28.7234043,32.5045997 L28.7234043,30.8510638 L29.6211054,30.8510638 Z M29.5941474,31.5091758 C29.7316332,31.5091758 29.815203,31.4478464 29.815203,31.3440581 C29.815203,31.2449875 29.7316332,31.1860169 29.5941474,31.1883757 L29.2167355,31.1883757 L29.2167355,31.5091758 L29.5941474,31.5091758 Z M29.5941474,32.1696466 C29.7666786,32.1696466 29.8745105,32.1035996 29.8745105,31.990376 C29.8745105,31.8865877 29.7666786,31.8205406 29.5941474,31.8228995 L29.2167355,31.8228995 L29.2167355,32.1696466 L29.5941474,32.1696466 Z M31.3302422,31.2143228 C31.8100944,31.2143228 32.1281987,31.4737935 32.1281987,31.8653583 C32.1281987,32.259282 31.8100944,32.5187527 31.3302422,32.5187527 C30.8503899,32.5187527 30.5349814,32.259282 30.5349814,31.8653583 C30.5349814,31.4737935 30.8503899,31.2143228 31.3302422,31.2143228 Z M31.3302422,31.5539935 C31.144232,31.5539935 31.0175294,31.68137 31.0175294,31.870076 C31.0175294,32.0611407 31.144232,32.1885172 31.3302422,32.1885172 C31.5189481,32.1885172 31.6456507,32.0611407 31.6456507,31.870076 C31.6456507,31.68137 31.5189481,31.5539935 31.3302422,31.5539935 Z M33.3359168,31.211964 C33.6540211,31.211964 33.8642935,31.4006699 33.8642935,31.7002406 L33.8642935,32.5045997 L33.387137,32.5045997 L33.387137,31.8205406 C33.387137,31.6766524 33.2900882,31.587017 33.1391235,31.587017 C32.9773755,31.5893759 32.8722393,31.6860877 32.8533687,31.8299759 L32.8533687,32.5045997 L32.3735165,32.5045997 L32.3735165,31.2284757 L32.8533687,31.2284757 L32.8533687,31.4360523 C32.9558091,31.2898052 33.1229487,31.211964 33.3359168,31.211964 Z M35.1097527,31.2284757 L35.5869092,31.2284757 L35.5869092,32.3913761 C35.5869092,32.7522763 35.2661091,32.9787234 34.7943442,32.9787234 C34.5382433,32.9787234 34.3064045,32.9079587 34.1419608,32.8136057 L34.3091003,32.5234703 C34.4411945,32.6036703 34.6029425,32.648488 34.7592988,32.648488 C34.9776586,32.648488 35.1097527,32.5517762 35.1097527,32.4031703 L35.1097527,32.2663584 C35.0153998,32.3748644 34.8752182,32.433835 34.6945996,32.433835 C34.3306667,32.433835 34.07187,32.1885172 34.07187,31.8181818 C34.07187,31.4549229 34.3225793,31.2143228 34.6838164,31.2143228 C34.8671308,31.2143228 35.012704,31.2756522 35.1097527,31.3841581 L35.1097527,31.2284757 Z M34.8159106,32.1271878 C34.9911376,32.1271878 35.1097527,32.0045289 35.1097527,31.8299759 C35.1097527,31.6507053 34.9911376,31.5304052 34.8159106,31.5304052 C34.6379879,31.5304052 34.5193727,31.6530641 34.5193727,31.8299759 C34.5193727,32.0045289 34.6379879,32.1271878 34.8159106,32.1271878 Z M36.5951381,31.211964 C36.9968122,31.211964 37.2313468,31.3817993 37.2340426,31.6742935 L37.2340426,32.5045997 L36.7622777,32.5045997 L36.7622777,32.3607114 C36.6679247,32.4668585 36.5196557,32.5234703 36.3228624,32.5234703 C36.0101497,32.5234703 35.8241395,32.3583526 35.8241395,32.124829 C35.8241395,31.8818701 36.0209329,31.7426994 36.38217,31.7379818 L36.7622777,31.7379818 L36.7622777,31.7238288 C36.7622777,31.6035288 36.6679247,31.5327641 36.4846104,31.5327641 C36.3632994,31.5327641 36.2042472,31.5681464 36.0478909,31.6341935 L35.9157967,31.3511346 C36.1449396,31.2614993 36.355212,31.211964 36.5951381,31.211964 Z M36.4711314,32.2380526 C36.6140087,32.2380526 36.7326239,32.1696466 36.7622777,32.0729348 L36.7622777,31.9620701 L36.476523,31.9620701 C36.341733,31.9620701 36.274338,32.0045289 36.274338,32.0941643 C36.274338,32.1814408 36.3471246,32.2380526 36.4711314,32.2380526 Z" id="Bonga" fill="#B2B2B2"></path>
                    <path d="M38.624929,30.8539007 C39.2481452,30.8539007 39.6649985,31.1687943 39.6649985,31.6453901 C39.6649985,32.1134752 39.260527,32.422695 38.6414381,32.422695 C38.3566572,32.422695 38.1255306,32.3460993 37.9686948,32.2070922 L37.9686948,32.9560284 L37.2340426,32.9560284 L37.2340426,30.870922 L37.9686948,30.870922 L37.9686948,31.0695035 C38.1255306,30.9304965 38.3484026,30.8539007 38.624929,30.8539007 Z M38.4433296,32.0141844 C38.7322378,32.0141844 38.926219,31.8609929 38.926219,31.6340426 C38.926219,31.4070922 38.7322378,31.2510638 38.4433296,31.2510638 C38.162676,31.2510638 37.9686948,31.4070922 37.9686948,31.6340426 C37.9686948,31.8609929 38.162676,32.0141844 38.4433296,32.0141844 Z M41.0771373,30.8510638 C41.692099,30.8510638 42.0511706,31.0553191 42.0552979,31.4070922 L42.0552979,32.4056738 L41.3330274,32.4056738 L41.3330274,32.2326241 C41.1885733,32.3602837 40.9615741,32.4283688 40.6602841,32.4283688 C40.181522,32.4283688 39.8967411,32.2297872 39.8967411,31.9489362 C39.8967411,31.6567376 40.198031,31.4893617 40.7510838,31.4836879 L41.3330274,31.4836879 L41.3330274,31.4666667 C41.3330274,31.3219858 41.1885733,31.2368794 40.9079197,31.2368794 C40.722193,31.2368794 40.4786847,31.2794326 40.2393036,31.3588652 L40.0370679,31.0184397 C40.387885,30.9106383 40.7098112,30.8510638 41.0771373,30.8510638 Z M40.8872834,32.0851064 C41.1060282,32.0851064 41.2876276,32.0028369 41.3330274,31.8865248 L41.3330274,31.7531915 L40.8955379,31.7531915 C40.6891749,31.7531915 40.5859934,31.8042553 40.5859934,31.9120567 C40.5859934,32.0170213 40.6974295,32.0851064 40.8872834,32.0851064 Z M43.7233268,32.5560284 C43.5541092,32.8425532 43.2693283,32.9787234 42.8483478,32.9787234 C42.596585,32.9787234 42.390222,32.9276596 42.1879863,32.8198582 L42.4934035,32.470922 C42.596585,32.5304965 42.6832574,32.5560284 42.7905662,32.5560284 C42.914384,32.5560284 43.0010564,32.5163121 43.058838,32.4397163 L43.1124924,32.3687943 L42.1879863,30.870922 L42.9432748,30.870922 L43.4756913,31.8695035 L43.9503261,30.870922 L44.6808511,30.870922 L43.7233268,32.5560284 Z" id="pay" fill="#B2B2B2"></path>
                </g>
            </g>
        </g>
    </g>
</svg>