<?xml version="1.0" encoding="UTF-8"?>
<svg width="51px" height="41px" viewBox="0 0 51 41" version="1.1" xmlns="http://www.w3.org/2000/svg" xmlns:xlink="http://www.w3.org/1999/xlink">
    <!-- Generator: Sketch 51.2 (57519) - http://www.bohemiancoding.com/sketch -->
    <title>bonga-logo</title>
    <desc>Created with Sketch.</desc>
    <defs>
        <path d="M1.56864458,1.05506627 C2.13774699,1.05506627 2.5048012,1.29078916 2.5048012,1.65110843 C2.5048012,1.88346386 2.34989759,2.08214458 2.10743976,2.15622892 C2.39030723,2.22021084 2.57551807,2.45593373 2.57551807,2.75227108 C2.57551807,3.15636747 2.20172892,3.41566265 1.62589157,3.41566265 L0.373192771,3.41566265 L0.373192771,1.05506627 L1.56864458,1.05506627 Z M1.52486747,1.96428313 C1.63262651,1.96428313 1.70334337,1.89693373 1.70334337,1.79254217 C1.70334337,1.69151807 1.63262651,1.62753614 1.52486747,1.62753614 L1.15107831,1.62753614 L1.15107831,1.96428313 L1.52486747,1.96428313 Z M1.52486747,2.84319277 C1.66966867,2.84319277 1.76395783,2.76910843 1.76395783,2.65461446 C1.76395783,2.55022289 1.66966867,2.48287349 1.52486747,2.48287349 L1.15107831,2.48287349 L1.15107831,2.84319277 L1.52486747,2.84319277 Z" id="path-1"></path>
        <path d="M3.13624096,1.54671687 C3.7693253,1.54671687 4.17678916,1.91713855 4.17678916,2.4929759 C4.17678916,3.06881325 3.7693253,3.44260241 3.13624096,3.44260241 C2.50315663,3.44260241 2.09569277,3.06881325 2.09569277,2.4929759 C2.09569277,1.91713855 2.50315663,1.54671687 3.13624096,1.54671687 Z M3.13624096,2.14612651 C2.96786747,2.14612651 2.86010843,2.28756024 2.86010843,2.50307831 C2.86010843,2.71859639 2.96786747,2.86003012 3.13624096,2.86003012 C3.30461446,2.86003012 3.41237349,2.71859639 3.41237349,2.50307831 C3.41237349,2.28756024 3.30461446,2.14612651 3.13624096,2.14612651 Z M5.72919277,1.53998193 C6.11645181,1.53998193 6.38921687,1.81611446 6.38921687,2.24041566 L6.38921687,3.41566265 L5.63153614,3.41566265 L5.63153614,2.4593012 C5.63153614,2.30439759 5.54398193,2.20674096 5.4126506,2.20674096 C5.26448193,2.20674096 5.17019277,2.32460241 5.17019277,2.50307831 L5.17019277,3.41566265 L4.41251205,3.41566265 L4.41251205,1.57365663 L5.17019277,1.57365663 L5.17019277,1.83631928 C5.29478916,1.64774096 5.48673494,1.53998193 5.72919277,1.53998193 Z M7.79345181,1.57365663 L8.54776506,1.57365663 L8.54776506,3.26412651 C8.54776506,3.77598193 8.12683133,4.10262651 7.51731928,4.10262651 C7.16373494,4.10262651 6.84045783,3.9915 6.64851205,3.86353614 L6.88760241,3.35504819 C7.04924096,3.45607229 7.27149398,3.51668675 7.44996988,3.51668675 C7.67222289,3.51668675 7.79345181,3.42576506 7.79345181,3.28433133 L7.79345181,3.10922289 C7.6823253,3.23381928 7.52405422,3.30453614 7.33210843,3.30453614 C6.89770482,3.30453614 6.57442771,2.95768675 6.57442771,2.4155241 C6.57442771,1.88683133 6.88423494,1.54671687 7.31863855,1.54671687 C7.51731928,1.54671687 7.67895783,1.61743373 7.79345181,1.74539759 L7.79345181,1.57365663 Z M7.5375241,2.76574096 C7.69242771,2.76574096 7.79345181,2.63440964 7.79345181,2.43572892 C7.79345181,2.23368072 7.69242771,2.1023494 7.5375241,2.1023494 C7.38262048,2.1023494 7.28159639,2.23368072 7.28159639,2.43572892 C7.28159639,2.63440964 7.38262048,2.76574096 7.5375241,2.76574096 Z M9.8071988,1.53998193 C10.339259,1.53998193 10.6558012,1.7891747 10.6558012,2.22357831 L10.6558012,3.41566265 L9.91159036,3.41566265 L9.91159036,3.21698193 C9.80383133,3.3651506 9.62872289,3.44933735 9.393,3.44933735 C9.00237349,3.44933735 8.77675301,3.2203494 8.77675301,2.87013253 C8.77675301,2.50644578 9.02257831,2.3145 9.49065663,2.30776506 L9.91159036,2.30776506 C9.90822289,2.1798012 9.81056627,2.10571687 9.62535542,2.10571687 C9.48728916,2.10571687 9.27513855,2.14612651 9.06635542,2.22357831 L8.89798193,1.71845783 C9.21115663,1.60396386 9.53443373,1.53998193 9.8071988,1.53998193 Z M9.65566265,2.96778916 C9.75331928,2.96778916 9.8509759,2.91727711 9.91159036,2.82635542 L9.91159036,2.65798193 L9.64892771,2.65798193 C9.54453614,2.65798193 9.48728916,2.70849398 9.48728916,2.8061506 C9.48728916,2.9071747 9.54790361,2.96778916 9.65566265,2.96778916 Z" id="path-2"></path>
        <path d="M1.49407229,1.54671687 C2.00592771,1.54671687 2.33930723,1.92387349 2.33930723,2.50644578 C2.33930723,3.07554819 2.01603012,3.44260241 1.51427711,3.44260241 C1.31559639,3.44260241 1.14722289,3.3651506 1.02599398,3.22708434 L1.02599398,4.06895181 L0.268313253,4.06895181 L0.268313253,1.57365663 L1.02599398,1.57365663 L1.02599398,1.75886747 C1.14385542,1.6208012 1.30549398,1.54671687 1.49407229,1.54671687 Z M1.29875904,2.84319277 C1.46713253,2.84319277 1.57489157,2.70175904 1.57489157,2.48624096 C1.57489157,2.27072289 1.46713253,2.12928916 1.29875904,2.12928916 C1.13375301,2.12928916 1.02599398,2.27072289 1.02599398,2.48624096 C1.02599398,2.70175904 1.13375301,2.84319277 1.29875904,2.84319277 Z" id="path-3"></path>
        <path d="M3.06288554,1.53998193 C3.59494578,1.53998193 3.91148795,1.7891747 3.91148795,2.22357831 L3.91148795,3.41566265 L3.16727711,3.41566265 L3.16727711,3.21698193 C3.05951807,3.3651506 2.88440964,3.44933735 2.64868675,3.44933735 C2.25806024,3.44933735 2.03243976,3.2203494 2.03243976,2.87013253 C2.03243976,2.50644578 2.27826506,2.3145 2.74634337,2.30776506 L3.16727711,2.30776506 C3.16390964,2.1798012 3.06625301,2.10571687 2.88104217,2.10571687 C2.7429759,2.10571687 2.5308253,2.14612651 2.32204217,2.22357831 L2.15366867,1.71845783 C2.46684337,1.60396386 2.79012048,1.53998193 3.06288554,1.53998193 Z M2.9113494,2.96778916 C3.00900602,2.96778916 3.10666265,2.91727711 3.16727711,2.82635542 L3.16727711,2.65798193 L2.90461446,2.65798193 C2.80022289,2.65798193 2.7429759,2.70849398 2.7429759,2.8061506 C2.7429759,2.9071747 2.80359036,2.96778916 2.9113494,2.96778916 Z" id="path-4"></path>
        <path d="M4.95560843,3.54362651 C4.80070482,3.92751807 4.54140964,4.10262651 4.14741566,4.10262651 C3.90495783,4.10262651 3.70964458,4.03527711 3.51096386,3.88710843 L3.82750602,3.38872289 C3.9083253,3.46280723 3.98240964,3.49648193 4.07333133,3.49648193 C4.16088554,3.49648193 4.21813253,3.4661747 4.2551747,3.40219277 L4.28211446,3.35841566 L3.5176988,1.57365663 L4.29558434,1.57365663 L4.65927108,2.62430723 L4.9589759,1.57365663 L5.71328916,1.57365663 L4.95560843,3.54362651 Z" id="path-5"></path>
    </defs>
    <g id="Page-1" stroke="none" stroke-width="1" fill="none" fill-rule="evenodd">
        <g id="bonga-logo" transform="translate(1.000000, 0.000000)">
            <path d="M7.19879518,24.0963855 L36.686747,24.0963855 L36.686747,23.0512048 C36.6900589,21.6568955 37.8195461,20.5274083 39.2138554,20.5240964 L47.9307229,20.5240964 L47.9307229,10.1957831 C47.9307229,8.40963855 46.4427711,7.12048193 44.2831325,7.01204819 L11.1927711,7.01204819 C10.6761857,7.00835552 10.1721879,6.85223145 9.7439759,6.56325301 C9.44277108,6.34337349 8.59638554,5.65963855 8.96385542,5.65963855 L44.5783133,5.65963855 C44.5845564,5.45835144 44.5744833,5.25688934 44.5481928,5.05722892 L44.3373494,3.52108434 C44.037648,1.4694336 42.1378385,0.0445764703 40.0843373,0.331325301 L7.68674699,4.79216867 C5.63855422,5.09337349 4.27710843,6.90060241 4.37349398,9.00903614 C4.37349398,9.00903614 4.39759036,10.6596386 4.39759036,11.0843373 L4.39759036,36.2831325 C4.39759036,38.7740964 6.43373494,40.8012048 10.5180723,40.8012048 L42.2259036,40.8012048 C44.3644578,40.8012048 47.9307229,38.7650602 47.9307229,36.2831325 L47.9307229,29.0391566 L39.1957831,29.0391566 C37.806192,29.0259376 36.6866841,27.8956781 36.686747,26.5060241 L36.686747,25.2710843 L7.19879518,25.2710843 C6.86609352,25.2710843 6.59638554,25.0013764 6.59638554,24.6686747 C6.59638554,24.335973 6.86609352,24.0662651 7.19879518,24.0662651 L7.19879518,24.0963855 Z" id="Shape" fill="#FFFFFF" fill-rule="nonzero"></path>
            <g id="Group" opacity="0.5" transform="translate(4.216867, 9.638554)" fill="#C1C1C1" fill-rule="nonzero">
                <rect id="Rectangle-path" x="0.171686747" y="0.180722892" width="1.5873494" height="1"></rect>
                <path d="M11.4457831,0.680722892 L8.21084337,0.680722892 L8.21084337,0.180722892 L11.4457831,0.180722892 L11.4457831,0.680722892 Z M6.60542169,0.680722892 L3.37349398,0.680722892 L3.37349398,0.180722892 L6.59638554,0.180722892 L6.60542169,0.680722892 Z" id="Shape"></path>
                <path d="M40.4728916,0.680722892 L37.246988,0.680722892 L37.246988,0.180722892 L40.4728916,0.180722892 L40.4728916,0.680722892 Z M35.6325301,0.680722892 L32.4096386,0.680722892 L32.4096386,0.180722892 L35.626506,0.180722892 L35.6325301,0.680722892 Z M30.7921687,0.680722892 L27.5692771,0.680722892 L27.5692771,0.180722892 L30.7981928,0.180722892 L30.7921687,0.680722892 Z M25.9518072,0.680722892 L22.7289157,0.680722892 L22.7289157,0.180722892 L25.9578313,0.180722892 L25.9518072,0.680722892 Z M21.1114458,0.680722892 L17.8885542,0.680722892 L17.8885542,0.180722892 L21.1174699,0.180722892 L21.1114458,0.680722892 Z M16.2650602,0.680722892 L13.0512048,0.680722892 L13.0512048,0.180722892 L16.2650602,0.180722892 L16.2650602,0.680722892 Z" id="Shape"></path>
                <rect id="Rectangle-path" x="42.0873494" y="0.180722892" width="1.5873494" height="1"></rect>
            </g>
            <g id="Group" opacity="0.5" transform="translate(4.216867, 36.445783)" fill="#C1C1C1" fill-rule="nonzero">
                <rect id="Rectangle-path" x="0.171686747" y="0.144578313" width="1.5873494" height="1"></rect>
                <path d="M11.4457831,0.65060241 L8.21084337,0.65060241 L8.21084337,0.15060241 L11.4457831,0.15060241 L11.4457831,0.65060241 Z M6.60542169,0.65060241 L3.37349398,0.65060241 L3.37349398,0.15060241 L6.59638554,0.15060241 L6.60542169,0.65060241 Z" id="Shape"></path>
                <path d="M40.4728916,0.65060241 L37.246988,0.65060241 L37.246988,0.15060241 L40.4728916,0.15060241 L40.4728916,0.65060241 Z M35.6325301,0.65060241 L32.4096386,0.65060241 L32.4096386,0.15060241 L35.626506,0.15060241 L35.6325301,0.65060241 Z M30.7921687,0.65060241 L27.5692771,0.65060241 L27.5692771,0.15060241 L30.7981928,0.15060241 L30.7921687,0.65060241 Z M25.9518072,0.65060241 L22.7289157,0.65060241 L22.7289157,0.15060241 L25.9578313,0.15060241 L25.9518072,0.65060241 Z M21.1114458,0.65060241 L17.8885542,0.65060241 L17.8885542,0.15060241 L21.1174699,0.15060241 L21.1114458,0.65060241 Z M16.2710843,0.65060241 L13.0512048,0.65060241 L13.0512048,0.15060241 L16.2650602,0.15060241 L16.2710843,0.65060241 Z" id="Shape"></path>
                <rect id="Rectangle-path" x="42.0873494" y="0.144578313" width="1.5873494" height="1"></rect>
            </g>
            <g id="Group" opacity="0.5" transform="translate(28.012048, 30.421687)">
                <g>
                    <g id="B">
                        <use fill="#000000" xlink:href="#path-1"></use>
                        <use fill="#C1C1C1" xlink:href="#path-1"></use>
                    </g>
                    <g id="onga">
                        <use fill="#000000" xlink:href="#path-2"></use>
                        <use fill="#C1C1C1" xlink:href="#path-2"></use>
                    </g>
                </g>
                <g transform="translate(11.144578, 0.000000)">
                    <g id="p">
                        <use fill="#000000" xlink:href="#path-3"></use>
                        <use fill="#C1C1C1" xlink:href="#path-3"></use>
                    </g>
                    <g id="a">
                        <use fill="#000000" xlink:href="#path-4"></use>
                        <use fill="#C1C1C1" xlink:href="#path-4"></use>
                    </g>
                    <g id="y">
                        <use fill="#000000" xlink:href="#path-5"></use>
                        <use fill="#C1C1C1" xlink:href="#path-5"></use>
                    </g>
                </g>
            </g>
            <path d="M20.9216867,19.7801205 C19.7590361,16.8042169 19.7168675,13.2289157 19.8192771,11.3463855 L0.301204819,11.3463855 C0.301204819,11.3463855 -0.301204819,18.1295181 9.3373494,23.996988 L23.1716867,23.996988 C22.4186747,23.0933735 21.7078313,21.7680723 20.9216867,19.7801205 Z" id="Shape" stroke="#FFFFFF" stroke-width="1.5" fill="#CC0E4E" fill-rule="nonzero"></path>
            <path d="M22.8042169,23.7951807 L9.3373494,23.7951807 C10.8341445,24.7506449 12.5736458,25.2566056 14.3493976,25.253012 L24.2560241,25.253012 C23.683189,24.8645326 23.1903211,24.3696195 22.8042169,23.7951807 Z" id="Shape" fill="#B11F24" fill-rule="nonzero"></path>
            <path d="M39.5963855,28.1566265 L39.8674699,28.1566265 L39.8674699,30.1204819 L41.5361446,28.1536145 L47.8614458,28.1536145 C49.0380396,28.1569487 49.9950191,27.2067085 50,26.0301205 L50,23.5361446 C49.9966909,22.3630811 49.0465574,21.4129476 47.873494,21.4096386 L39.5963855,21.4096386 C38.4246988,21.4096386 37.6957831,22.3644578 37.6957831,23.5361446 L37.6957831,26.0331325 C37.6957831,27.2018072 38.4277108,28.1566265 39.5963855,28.1566265 Z" id="Shape" fill="#B11F24" fill-rule="nonzero"></path>
            <path d="M39.8222892,27.6054217 L40.0933735,27.6054217 L40.0933735,29.5722892 L41.7620482,27.6054217 L47.3253012,27.6054217 C48.4983647,27.6021126 49.4484981,26.6519791 49.4518072,25.4789157 L49.4518072,23.5361446 C49.4484981,22.3630811 48.4983647,21.4129476 47.3253012,21.4096386 L39.8222892,21.4096386 C38.6492257,21.4129476 37.6990922,22.3630811 37.6957831,23.5361446 L37.6957831,25.4759036 C37.697437,26.6501432 38.6480531,27.6021058 39.8222892,27.6054217 Z" id="Shape" fill="#FFFFFF" fill-rule="nonzero"></path>
            <path d="M40.7831325,23.3674699 C41.5566639,23.3674699 42.1837349,23.9945409 42.1837349,24.7680723 C42.1837349,25.5416036 41.5566639,26.1686747 40.7831325,26.1686747 C40.0096012,26.1686747 39.3825301,25.5416036 39.3825301,24.7680723 C39.3825301,23.9945409 40.0096012,23.3674699 40.7831325,23.3674699 Z" id="Shape" fill="#CC0E4E" fill-rule="nonzero"></path>
        </g>
    </g>
</svg>