<?xml version="1.0" encoding="UTF-8"?>
<svg width="551px" height="96px" viewBox="0 0 551 96" version="1.1" xmlns="http://www.w3.org/2000/svg" xmlns:xlink="http://www.w3.org/1999/xlink">
    <!-- Generator: Sketch 49.2 (51160) - http://www.bohemiancoding.com/sketch -->
    <title>Group 37</title>
    <desc>Created with Sketch.</desc>
    <defs>
        <polygon id="path-1" points="0.146735743 0.1875 97.5338904 0.1875 97.5338904 91 0.146735743 91"></polygon>
    </defs>
    <g id="pages-with-content" stroke="none" stroke-width="1" fill="none" fill-rule="evenodd">
        <g id="footer-logos" transform="translate(-1235.000000, -267.000000)">
            <g id="Group-37" transform="translate(1236.000000, 267.000000)">
                <g id="Group-35" transform="translate(139.000000, 0.000000)">
                    <path d="M26.0349489,0.99092255 C38.228484,0.99092255 45.9740629,6.28245665 45.9740629,14.5648578 C45.9740629,20.1631475 42.3696846,24.6877926 36.694706,26.2215706 C43.5200181,27.6019708 47.7379076,32.8935049 47.7379076,39.7955059 C47.7379076,48.9981739 39.6855731,54.7498414 27.0319046,54.7498414 L0.4975452,54.7498414 L0.4975452,0.99092255 L26.0349489,0.99092255 Z M25.2680599,22.3871256 C29.1791938,22.3871256 31.5565497,20.3932142 31.5565497,17.0189026 C31.5565497,13.7979688 29.1791938,11.8807463 25.2680599,11.9574352 L14.5316139,11.9574352 L14.5316139,22.3871256 L25.2680599,22.3871256 Z M25.2680599,43.8600176 C30.1761495,43.8600176 33.2437055,41.7127284 33.2437055,38.0316612 C33.2437055,34.6573496 30.1761495,32.5100604 25.2680599,32.5867493 L14.5316139,32.5867493 L14.5316139,43.8600176 L25.2680599,43.8600176 Z M74.6557115,12.8010131 C88.3063357,12.8010131 97.3556259,21.2367921 97.3556259,33.9671495 C97.3556259,46.7741958 88.3063357,55.2099748 74.6557115,55.2099748 C61.0050873,55.2099748 52.032486,46.7741958 52.032486,33.9671495 C52.032486,21.2367921 61.0050873,12.8010131 74.6557115,12.8010131 Z M74.6557115,23.8442147 C69.3641774,23.8442147 65.7597991,27.9854153 65.7597991,34.1205273 C65.7597991,40.3323282 69.3641774,44.4735288 74.6557115,44.4735288 C80.0239345,44.4735288 83.6283128,40.3323282 83.6283128,34.1205273 C83.6283128,27.9854153 80.0239345,23.8442147 74.6557115,23.8442147 Z M131.712253,12.7243242 C140.761543,12.7243242 146.743277,18.8594362 146.743277,28.5989265 L146.743277,54.7498414 L133.169342,54.7498414 L133.169342,32.5100604 C133.169342,27.8320375 130.408542,24.9178593 126.113963,24.9178593 C121.512629,24.9945482 118.521762,28.1387931 117.98494,32.816816 L117.98494,54.7498414 L104.334316,54.7498414 L104.334316,13.2611465 L117.98494,13.2611465 L117.98494,20.0097697 C120.899118,15.2550579 125.65383,12.7243242 131.712253,12.7243242 Z M182.173549,13.2611465 L195.747485,13.2611465 L195.747485,51.0687742 C195.747485,62.8021759 186.621505,70.1643103 173.200948,70.1643103 C165.915503,70.1643103 159.320257,67.8636433 154.642234,64.7960873 L159.396946,55.3633526 C163.154702,57.9707752 167.756036,59.4278643 172.203992,59.4278643 C178.415793,59.4278643 182.173549,56.2836194 182.173549,51.4522187 L182.173549,47.0042625 C179.489438,50.5319519 175.501615,52.4491744 170.363459,52.4491744 C160.010457,52.4491744 152.648323,44.4735288 152.648323,32.4333715 C152.648323,20.6232809 159.780391,12.8010131 170.056703,12.8010131 C175.271548,12.8010131 179.412749,14.7949245 182.173549,18.3226139 L182.173549,13.2611465 Z M173.814459,42.4796174 C178.799238,42.4796174 182.173549,38.4917946 182.173549,32.816816 C182.173549,26.9884596 178.799238,23.0773257 173.814459,23.0773257 C168.752992,23.0773257 165.37868,27.0651485 165.37868,32.816816 C165.37868,38.4917946 168.752992,42.4796174 173.814459,42.4796174 Z M224.429133,12.7243242 C235.855779,12.7243242 242.527714,18.245925 242.604403,27.7553486 L242.604403,54.7498414 L229.183845,54.7498414 L229.183845,50.0718185 C226.499733,53.522819 222.281844,55.3633526 216.683554,55.3633526 C207.787642,55.3633526 202.496108,49.9951296 202.496108,42.4029285 C202.496108,34.5039718 208.094397,29.9793267 218.37071,29.8259489 L229.183845,29.8259489 L229.183845,29.3658155 C229.183845,25.4546816 226.499733,23.1540146 221.284888,23.1540146 C217.833888,23.1540146 213.309243,24.3043481 208.861286,26.4516373 L205.10353,17.2489693 C211.622087,14.3347911 217.603821,12.7243242 224.429133,12.7243242 Z M220.901444,46.0839957 C224.965955,46.0839957 228.340267,43.8600176 229.183845,40.7157727 L229.183845,37.1113944 L221.054822,37.1113944 C217.220377,37.1113944 215.303154,38.4917946 215.303154,41.4059728 C215.303154,44.2434621 217.373754,46.0839957 220.901444,46.0839957 Z" id="Bonga" fill="#DD004C"></path>
                    <path d="M277.267785,12.8010131 C288.847809,12.8010131 296.593388,21.313481 296.593388,34.1972162 C296.593388,46.8508847 289.077876,55.2099748 277.574541,55.2099748 C272.283007,55.2099748 267.988428,53.1393745 265.07425,49.3816184 L265.07425,69.627488 L251.423626,69.627488 L251.423626,13.2611465 L265.07425,13.2611465 L265.07425,18.6293695 C267.988428,14.8716134 272.129629,12.8010131 277.267785,12.8010131 Z M273.893474,44.1667732 C279.261697,44.1667732 282.866075,40.0255726 282.866075,33.8904606 C282.866075,27.7553486 279.261697,23.5374591 273.893474,23.5374591 C268.678629,23.5374591 265.07425,27.7553486 265.07425,33.8904606 C265.07425,40.0255726 268.678629,44.1667732 273.893474,44.1667732 Z M322.890681,12.7243242 C334.317327,12.7243242 340.989261,18.245925 341.06595,27.7553486 L341.06595,54.7498414 L327.645393,54.7498414 L327.645393,50.0718185 C324.961281,53.522819 320.743392,55.3633526 315.145102,55.3633526 C306.24919,55.3633526 300.957655,49.9951296 300.957655,42.4029285 C300.957655,34.5039718 306.555945,29.9793267 316.832258,29.8259489 L327.645393,29.8259489 L327.645393,29.3658155 C327.645393,25.4546816 324.961281,23.1540146 319.746436,23.1540146 C316.295435,23.1540146 311.77079,24.3043481 307.322834,26.4516373 L303.565078,17.2489693 C310.083635,14.3347911 316.065369,12.7243242 322.890681,12.7243242 Z M319.362991,46.0839957 C323.427503,46.0839957 326.801815,43.8600176 327.645393,40.7157727 L327.645393,37.1113944 L319.516369,37.1113944 C315.681924,37.1113944 313.764702,38.4917946 313.764702,41.4059728 C313.764702,44.2434621 315.835302,46.0839957 319.362991,46.0839957 Z M372.117955,58.8143531 C368.97371,66.559932 363.682176,70.2409992 355.859908,70.2409992 C351.181885,70.2409992 347.34744,68.860599 343.589684,65.9464208 L349.264662,56.5136861 C351.181885,58.124153 352.792352,58.8143531 354.786263,58.8143531 C357.08693,58.8143531 358.697397,57.7407085 359.771042,55.6701082 L360.767997,53.7528857 L343.589684,13.2611465 L357.623753,13.2611465 L367.516621,40.2556393 L376.335844,13.2611465 L389.909779,13.2611465 L372.117955,58.8143531 Z" id="pay" fill="#DD004C"></path>
                    <path d="M178.705075,76.4235907 L180.567024,76.4235907 L184.723933,89.6304369 L188.837541,76.4235907 L190.569586,76.4235907 L194.726495,89.6304369 L198.840103,76.4235907 L200.6371,76.4235907 L195.549217,91.5789879 L193.77387,91.5789879 L189.681913,78.7402014 L185.546655,91.5789879 L183.771308,91.5789879 L178.705075,76.4235907 Z M205.032165,80.1258377 C208.712762,80.1258377 210.531409,82.6589541 210.358205,86.5127551 L201.048461,86.5127551 C201.329918,88.7644142 202.953711,90.2366528 205.183719,90.2366528 C206.591006,90.2366528 207.825089,89.7170391 208.712762,88.7860647 L209.643736,89.7603403 C208.561208,90.9511215 206.959066,91.6439396 205.053816,91.6439396 C201.697978,91.6439396 199.381367,89.2840278 199.381367,85.8848887 C199.381367,82.4857496 201.719628,80.1474883 205.032165,80.1258377 Z M201.048461,85.17042 L208.842665,85.17042 C208.734412,82.9620621 207.262174,81.5331246 205.032165,81.5331246 C202.845458,81.5331246 201.286617,82.9620621 201.048461,85.17042 Z M234.368684,80.1258377 C237.031704,80.1258377 238.612196,81.7929314 238.612196,84.5642041 L238.612196,91.5789879 L236.923451,91.5789879 L236.923451,84.9972154 C236.923451,82.9404115 235.73267,81.7279797 233.762468,81.7279797 C231.402557,81.7929314 230.038571,83.5033263 230.038571,85.971491 L230.038571,91.5789879 L228.328176,91.5789879 L228.328176,84.9972154 C228.328176,82.9404115 227.159045,81.7279797 225.167193,81.7279797 C222.828932,81.7929314 221.421645,83.5033263 221.421645,85.971491 L221.421645,91.5789879 L219.754551,91.5789879 L219.754551,80.1907894 L221.421645,80.1907894 L221.421645,82.767207 C222.179415,80.9918604 223.716605,80.1474883 225.773409,80.1258377 C227.916815,80.1258377 229.389054,81.2083661 229.865366,83.0919655 C230.579835,81.1001133 232.181977,80.1474883 234.368684,80.1258377 Z M251.082922,91.5789879 L249.437479,91.5789879 L249.437479,89.8036414 C248.528155,91.0377238 247.077567,91.6439396 245.25892,91.6439396 C242.899008,91.6439396 241.383468,90.1500505 241.383468,88.2014994 C241.383468,86.2096472 242.96396,84.9539143 245.64863,84.9322637 L249.394178,84.9322637 L249.394178,84.217795 C249.394178,82.5507013 248.354951,81.5331246 246.341448,81.5331246 C245.085715,81.5331246 243.916585,82.0094371 242.725803,82.8538092 L242.011335,81.663028 C243.483573,80.6887525 244.717656,80.1258377 246.666207,80.1258377 C249.48078,80.1258377 251.039621,81.6197269 251.061272,84.0445904 L251.082922,91.5789879 Z M245.583678,90.2366528 C247.510579,90.2366528 248.982817,89.2840278 249.415829,87.6602352 L249.415829,86.2745989 L245.865136,86.2745989 C243.959886,86.2745989 242.96396,86.8591642 242.96396,88.1365477 C242.96396,89.3922806 243.981536,90.2366528 245.583678,90.2366528 Z M262.947433,91.5789879 L259.050331,85.7982864 L256.647118,88.2881017 L256.647118,91.5789879 L254.958374,91.5789879 L254.958374,75.5142668 L256.647118,75.5142668 L256.647118,86.1013944 L262.514422,80.1907894 L264.506274,80.1907894 L260.241112,84.5858546 L264.960936,91.5789879 L262.947433,91.5789879 Z M270.763288,80.1258377 C274.443885,80.1258377 276.262532,82.6589541 276.089328,86.5127551 L266.779584,86.5127551 C267.061041,88.7644142 268.684834,90.2366528 270.914842,90.2366528 C272.322129,90.2366528 273.556212,89.7170391 274.443885,88.7860647 L275.374859,89.7603403 C274.292331,90.9511215 272.690189,91.6439396 270.784939,91.6439396 C267.429101,91.6439396 265.11249,89.2840278 265.11249,85.8848887 C265.11249,82.4857496 267.450751,80.1474883 270.763288,80.1258377 Z M266.779584,85.17042 L274.573788,85.17042 C274.465535,82.9620621 272.993297,81.5331246 270.763288,81.5331246 C268.576581,81.5331246 267.01774,82.9620621 266.779584,85.17042 Z M286.308396,75.7740737 C286.936262,75.7740737 287.412575,76.2503861 287.412575,76.9215537 C287.412575,77.5710708 286.936262,78.0690338 286.308396,78.0690338 C285.680529,78.0690338 285.204217,77.5710708 285.204217,76.9215537 C285.204217,76.2503861 285.680529,75.7740737 286.308396,75.7740737 Z M285.485674,80.1907894 L287.152768,80.1907894 L287.152768,91.5789879 L285.485674,91.5789879 L285.485674,80.1907894 Z M296.679018,89.5005335 L297.15533,90.7995675 C296.354259,91.3408317 295.488236,91.6439396 294.578913,91.6439396 C292.911819,91.6655902 291.677737,90.6696641 291.677737,88.4180051 L291.677737,81.8578831 L290.032293,81.8578831 L290.032293,80.5371985 L291.677737,80.5371985 L291.677737,77.5494202 L293.34483,77.5494202 L293.34483,80.5371985 L296.960475,80.5371985 L296.960475,81.8578831 L293.34483,81.8578831 L293.34483,88.1365477 C293.34483,89.522184 293.886094,90.0850988 294.86037,90.0850988 C295.444935,90.0634482 296.051151,89.8685931 296.679018,89.5005335 Z M312.39733,80.1258377 C315.623264,80.1258377 317.874923,82.5074001 317.874923,85.9065393 C317.874923,89.2840278 315.666565,91.6439396 312.440631,91.6439396 C310.405477,91.6439396 308.846637,90.7129652 308.002264,89.1324738 L308.002264,95.779198 L306.31352,95.779198 L306.31352,80.1907894 L308.002264,80.1907894 L308.002264,82.6373036 C308.846637,81.0568121 310.405477,80.1258377 312.39733,80.1258377 Z M312.094222,90.1500505 C314.475784,90.1500505 316.164528,88.3530534 316.164528,85.8632381 C316.164528,83.3950734 314.475784,81.5764257 312.094222,81.5764257 C309.691009,81.5764257 308.002264,83.3734229 308.002264,85.8632381 C308.002264,88.3747039 309.691009,90.1500505 312.094222,90.1500505 Z M325.474272,80.1258377 C328.851761,80.1258377 331.254974,82.4857496 331.254974,85.8632381 C331.254974,89.2623772 328.851761,91.6439396 325.474272,91.6439396 C322.075133,91.6439396 319.693571,89.2623772 319.693571,85.8632381 C319.693571,82.4857496 322.075133,80.1258377 325.474272,80.1258377 Z M325.474272,81.6197269 C323.071059,81.6197269 321.382315,83.3734229 321.382315,85.8848887 C321.382315,88.4396557 323.071059,90.1717011 325.474272,90.1717011 C327.855835,90.1717011 329.56623,88.4396557 329.56623,85.8848887 C329.56623,83.3734229 327.855835,81.6197269 325.474272,81.6197269 Z M340.239959,82.4424484 C339.352286,81.8795337 338.204806,81.5331246 337.143928,81.5331246 C335.866545,81.5331246 334.892269,81.9877865 334.892269,83.0703149 C334.892269,85.6467324 341.257536,84.3260478 341.257536,88.4180051 C341.257536,90.6480135 339.265684,91.6439396 337.078977,91.6439396 C335.455184,91.6439396 333.78809,91.0810249 332.705562,90.0417976 L333.355079,88.8077153 C334.329355,89.7170391 335.801593,90.2583033 337.143928,90.2583033 C338.486264,90.2583033 339.568792,89.7386897 339.590442,88.5912096 C339.655394,85.819937 333.268477,87.2272239 333.290127,83.2002183 C333.290127,81.0351616 335.173727,80.1041872 337.252181,80.1041872 C338.616167,80.1041872 339.936852,80.5155479 340.889477,81.1434144 L340.239959,82.4424484 Z M350.047667,82.4424484 C349.159993,81.8795337 348.012513,81.5331246 346.951635,81.5331246 C345.674252,81.5331246 344.699976,81.9877865 344.699976,83.0703149 C344.699976,85.6467324 351.065243,84.3260478 351.065243,88.4180051 C351.065243,90.6480135 349.073391,91.6439396 346.886684,91.6439396 C345.262891,91.6439396 343.595797,91.0810249 342.513269,90.0417976 L343.162786,88.8077153 C344.137062,89.7170391 345.6093,90.2583033 346.951635,90.2583033 C348.293971,90.2583033 349.376499,89.7386897 349.39815,88.5912096 C349.463101,85.819937 343.076184,87.2272239 343.097834,83.2002183 C343.097834,81.0351616 344.981434,80.1041872 347.059888,80.1041872 C348.423874,80.1041872 349.744559,80.5155479 350.697184,81.1434144 L350.047667,82.4424484 Z M354.659237,75.7740737 C355.287104,75.7740737 355.763416,76.2503861 355.763416,76.9215537 C355.763416,77.5710708 355.287104,78.0690338 354.659237,78.0690338 C354.031371,78.0690338 353.555059,77.5710708 353.555059,76.9215537 C353.555059,76.2503861 354.031371,75.7740737 354.659237,75.7740737 Z M353.836516,80.1907894 L355.50361,80.1907894 L355.50361,91.5789879 L353.836516,91.5789879 L353.836516,80.1907894 Z M365.80928,80.1258377 C369.035214,80.1258377 371.286873,82.5074001 371.286873,85.9065393 C371.286873,89.2840278 369.078515,91.6439396 365.852581,91.6439396 C363.817428,91.6439396 362.258587,90.7129652 361.414215,89.1324738 L361.414215,91.5789879 L359.72547,91.5789879 L359.72547,75.5142668 L361.414215,75.5142668 L361.414215,82.6373036 C362.258587,81.0568121 363.817428,80.1258377 365.80928,80.1258377 Z M365.506172,90.1500505 C367.887734,90.1500505 369.576478,88.3530534 369.576478,85.8632381 C369.576478,83.3950734 367.887734,81.5764257 365.506172,81.5764257 C363.102959,81.5764257 361.414215,83.3734229 361.414215,85.8632381 C361.414215,88.3747039 363.102959,90.1500505 365.506172,90.1500505 Z M374.361254,75.5142668 L376.049998,75.5142668 L376.049998,91.5789879 L374.361254,91.5789879 L374.361254,75.5142668 Z M384.775177,80.1258377 C388.455773,80.1258377 390.274421,82.6589541 390.101216,86.5127551 L380.791472,86.5127551 C381.07293,88.7644142 382.696722,90.2366528 384.926731,90.2366528 C386.334018,90.2366528 387.5681,89.7170391 388.455773,88.7860647 L389.386748,89.7603403 C388.304219,90.9511215 386.702077,91.6439396 384.796827,91.6439396 C381.440989,91.6439396 379.124379,89.2840278 379.124379,85.8848887 C379.124379,82.4857496 381.46264,80.1474883 384.775177,80.1258377 Z M380.791472,85.17042 L388.585677,85.17042 C388.477424,82.9620621 387.005185,81.5331246 384.775177,81.5331246 C382.58847,81.5331246 381.029629,82.9620621 380.791472,85.17042 Z" id="We-make-it-possible" fill="#DD004C"></path>
                    <polygon id="Fill-33" fill="#1E1E1E" points="398.1665 18.1992 395.8195 18.1992 395.8195 17.3512 401.5335 17.3512 401.5335 18.1992 399.1745 18.1992 399.1745 25.0712 398.1665 25.0712"></polygon>
                    <path d="M408.8965,21.6806 C408.8395,20.6046 408.7715,19.3096 408.7825,18.3476 L408.7485,18.3476 C408.4845,19.2526 408.1635,20.2146 407.7745,21.2796 L406.4115,25.0256 L405.6555,25.0256 L404.4075,21.3486 C404.0415,20.2606 403.7305,19.2636 403.5135,18.3476 L403.4905,18.3476 C403.4675,19.3096 403.4115,20.6046 403.3425,21.7606 L403.1355,25.0716 L402.1855,25.0716 L402.7235,17.3516 L403.9945,17.3516 L405.3125,21.0856 C405.6325,22.0356 405.8955,22.8836 406.0905,23.6856 L406.1255,23.6856 C406.3195,22.9066 406.5945,22.0586 406.9385,21.0856 L408.3135,17.3516 L409.5835,17.3516 L410.0645,25.0716 L409.0915,25.0716 L408.8965,21.6806 Z" id="Fill-34" fill="#1E1E1E"></path>
                </g>
                <g id="Page-1">
                    <g id="Group-26">
                        <g id="Group-3" transform="translate(8.979955, 0.000000)">
                            <mask id="mask-2" fill="white">
                                <use xlink:href="#path-1"></use>
                            </mask>
                            <g id="Clip-2"></g>
                            <path d="M6.44970334,53.506525 L72.3625764,53.506525 L72.3625764,51.185775 C72.3625764,48.072025 74.9046521,45.524275 78.0114673,45.524275 L97.5338904,45.524275 L97.5338904,22.373275 C97.5338904,18.367025 94.2010797,15.477525 89.3800909,15.237775 C89.3815875,15.234525 89.3825853,15.230775 89.384082,15.227525 L15.3770263,15.227525 C14.5538637,15.227525 13.1320374,14.977525 12.1342646,14.227525 C11.4757345,13.732525 9.56499955,12.227525 10.3881621,12.227525 L90.0081889,12.227525 C90.0179171,11.790275 89.9974628,11.347775 89.9360998,10.901525 L89.4639038,7.462525 C88.8333114,2.872525 84.5705764,-0.365725 79.9910486,0.266275 L7.53777461,10.263025 C2.95824677,10.894775 -0.0884525612,14.977525 0.160990646,19.727525 C0.160990646,19.727525 0.214620935,23.422775 0.214620935,24.373275 L0.214620935,80.854275 C0.214620935,86.434275 4.77020223,91.000025 13.9008214,91.000025 L84.7738726,91.000025 C89.5527056,91.000025 97.5338904,86.434275 97.5338904,80.854275 L97.5338904,64.613025 L78.0114673,64.613025 C74.9046521,64.613025 72.3625764,62.065275 72.3625764,58.951525 L72.3625764,56.184525 L6.44970334,56.184525 C5.71484365,56.184525 5.11368552,55.582025 5.11368552,54.845525 C5.11368552,54.109025 5.71484365,53.506525 6.44970334,53.506525" id="Fill-1" fill="#EB002E" mask="url(#mask-2)"></path>
                        </g>
                        <path d="M107.158257,62.62995 L88.3761817,62.62995 C85.7620169,62.62995 83.622792,60.4862 83.622792,57.86595 L83.622792,52.27145 C83.622792,49.65145 85.7620169,47.5077 88.3761817,47.5077 L107.158257,47.5077 C109.772672,47.5077 111.911647,49.65145 111.911647,52.27145 L111.911647,57.86595 C111.911647,60.4862 109.772672,62.62995 107.158257,62.62995" id="Fill-4" fill="#ED1C24"></path>
                        <path d="M90.7839323,59.716725 C88.2184089,59.716725 86.1195938,57.612975 86.1195938,55.041975 C86.1195938,52.470725 88.2184089,50.366975 90.7839323,50.366975 C93.3494557,50.366975 95.4482708,52.470725 95.4482708,55.041975 C95.4482708,57.612975 93.3494557,59.716725 90.7839323,59.716725" id="Fill-6" fill="#FFFFFF"></path>
                        <path d="M44.7218245,24.9776 L0.0176106904,24.9776 C0.0176106904,24.9776 -1.35657194,40.19135 20.2132811,53.3091 L51.8611385,53.3091 C48.3766664,47.4841 44.7218245,41.6616 44.7218245,24.9776" id="Fill-8" fill="#FFFFFF"></path>
                        <path d="M44.7218245,24.9776 L0.0176106904,24.9776 C0.0176106904,24.9776 -1.35657194,40.19135 20.2132811,53.3091 L51.8611385,53.3091 C48.3766664,47.4841 44.7218245,41.6616 44.7218245,24.9776 Z" id="Stroke-10" stroke="#EB002E" stroke-width="2"></path>
                        <path d="M51.8611635,53.30915 L20.2130566,53.30915 C22.6109541,55.28465 26.3526022,56.3144 30.4791412,56.2219 L57.3179831,56.2219 C57.3179831,56.2219 53.791355,55.54215 51.8611635,53.30915" id="Fill-12" fill="#B11F24"></path>
                        <g id="Group-19" transform="translate(8.979955, 21.500000)" fill="#FFFFFF">
                            <polygon id="Fill-14" points="0.161140312 0.7275 1.65779955 0.7275 1.65779955 0.2275 0.161140312 0.2275"></polygon>
                            <path d="M3.20334967,0.7275 L6.29494878,0.7275 L6.29494878,0.2275 L3.20334967,0.2275 L3.20334967,0.7275 Z M7.84074833,0.7275 L10.932098,0.7275 L10.932098,0.2275 L7.84074833,0.2275 L7.84074833,0.7275 Z" id="Fill-16"></path>
                            <path d="M12.4778976,0.7275 L15.5694967,0.7275 L15.5694967,0.2275 L12.4778976,0.2275 L12.4778976,0.7275 Z M17.1150468,0.7275 L20.2063964,0.7275 L20.2063964,0.2275 L17.1150468,0.2275 L17.1150468,0.7275 Z M21.752196,0.7275 L24.8437951,0.7275 L24.8437951,0.2275 L21.752196,0.2275 L21.752196,0.7275 Z M26.3893452,0.7275 L29.4809443,0.7275 L29.4809443,0.2275 L26.3893452,0.2275 L26.3893452,0.7275 Z M31.0267439,0.7275 L34.1180935,0.7275 L34.1180935,0.2275 L31.0267439,0.2275 L31.0267439,0.7275 Z M35.6636437,0.7275 L38.7552428,0.7275 L38.7552428,0.2275 L35.6636437,0.2275 L35.6636437,0.7275 Z M40.3010423,0.7275 L43.3926414,0.7275 L43.3926414,0.2275 L40.3010423,0.2275 L40.3010423,0.7275 Z M44.9381915,0.7275 L48.0295412,0.7275 L48.0295412,0.2275 L44.9381915,0.2275 L44.9381915,0.7275 Z M49.5753408,0.7275 L52.6669399,0.7275 L52.6669399,0.2275 L49.5753408,0.2275 L49.5753408,0.7275 Z M54.21249,0.7275 L57.3040891,0.7275 L57.3040891,0.2275 L54.21249,0.2275 L54.21249,0.7275 Z M58.8498886,0.7275 L61.9412383,0.7275 L61.9412383,0.2275 L58.8498886,0.2275 L58.8498886,0.7275 Z M63.4867884,0.7275 L66.5783875,0.7275 L66.5783875,0.2275 L63.4867884,0.2275 L63.4867884,0.7275 Z M68.1241871,0.7275 L71.2157862,0.7275 L71.2157862,0.2275 L68.1241871,0.2275 L68.1241871,0.7275 Z M72.7613363,0.7275 L75.852686,0.7275 L75.852686,0.2275 L72.7613363,0.2275 L72.7613363,0.7275 Z M77.3984855,0.7275 L80.4900846,0.7275 L80.4900846,0.2275 L77.3984855,0.2275 L77.3984855,0.7275 Z M82.0356347,0.7275 L85.1272339,0.7275 L85.1272339,0.2275 L82.0356347,0.2275 L82.0356347,0.7275 Z M86.6730334,0.7275 L89.7643831,0.7275 L89.7643831,0.2275 L86.6730334,0.2275 L86.6730334,0.7275 Z M91.3099332,0.7275 L94.4015323,0.7275 L94.4015323,0.2275 L91.3099332,0.2275 L91.3099332,0.7275 Z" id="Fill-17"></path>
                            <polygon id="Fill-18" points="95.9473318 0.7275 97.4439911 0.7275 97.4439911 0.2275 95.9473318 0.2275"></polygon>
                        </g>
                        <g id="Group-25" transform="translate(8.979955, 81.500000)" fill="#FFFFFF">
                            <polygon id="Fill-20" points="0.161140312 0.7275 1.65779955 0.7275 1.65779955 0.2275 0.161140312 0.2275"></polygon>
                            <path d="M3.20334967,0.7275 L6.29494878,0.7275 L6.29494878,0.2275 L3.20334967,0.2275 L3.20334967,0.7275 Z M7.84074833,0.7275 L10.932098,0.7275 L10.932098,0.2275 L7.84074833,0.2275 L7.84074833,0.7275 Z" id="Fill-22"></path>
                            <path d="M12.4778976,0.7275 L15.5694967,0.7275 L15.5694967,0.2275 L12.4778976,0.2275 L12.4778976,0.7275 Z M17.1150468,0.7275 L20.2063964,0.7275 L20.2063964,0.2275 L17.1150468,0.2275 L17.1150468,0.7275 Z M21.752196,0.7275 L24.8437951,0.7275 L24.8437951,0.2275 L21.752196,0.2275 L21.752196,0.7275 Z M26.3893452,0.7275 L29.4809443,0.7275 L29.4809443,0.2275 L26.3893452,0.2275 L26.3893452,0.7275 Z M31.0267439,0.7275 L34.1180935,0.7275 L34.1180935,0.2275 L31.0267439,0.2275 L31.0267439,0.7275 Z M35.6636437,0.7275 L38.7552428,0.7275 L38.7552428,0.2275 L35.6636437,0.2275 L35.6636437,0.7275 Z M40.3010423,0.7275 L43.3926414,0.7275 L43.3926414,0.2275 L40.3010423,0.2275 L40.3010423,0.7275 Z M44.9381915,0.7275 L48.0295412,0.7275 L48.0295412,0.2275 L44.9381915,0.2275 L44.9381915,0.7275 Z M49.5753408,0.7275 L52.6669399,0.7275 L52.6669399,0.2275 L49.5753408,0.2275 L49.5753408,0.7275 Z M54.21249,0.7275 L57.3040891,0.7275 L57.3040891,0.2275 L54.21249,0.2275 L54.21249,0.7275 Z M58.8498886,0.7275 L61.9412383,0.7275 L61.9412383,0.2275 L58.8498886,0.2275 L58.8498886,0.7275 Z M63.4867884,0.7275 L66.5783875,0.7275 L66.5783875,0.2275 L63.4867884,0.2275 L63.4867884,0.7275 Z M68.1241871,0.7275 L71.2157862,0.7275 L71.2157862,0.2275 L68.1241871,0.2275 L68.1241871,0.7275 Z M72.7613363,0.7275 L75.852686,0.7275 L75.852686,0.2275 L72.7613363,0.2275 L72.7613363,0.7275 Z M77.3984855,0.7275 L80.4900846,0.7275 L80.4900846,0.2275 L77.3984855,0.2275 L77.3984855,0.7275 Z M82.0356347,0.7275 L85.1272339,0.7275 L85.1272339,0.2275 L82.0356347,0.2275 L82.0356347,0.7275 Z M86.6730334,0.7275 L89.7643831,0.7275 L89.7643831,0.2275 L86.6730334,0.2275 L86.6730334,0.7275 Z M91.3099332,0.7275 L94.4015323,0.7275 L94.4015323,0.2275 L91.3099332,0.2275 L91.3099332,0.7275 Z" id="Fill-23"></path>
                            <polygon id="Fill-24" points="95.9473318 0.7275 97.4439911 0.7275 97.4439911 0.2275 95.9473318 0.2275"></polygon>
                        </g>
                    </g>
                    <path d="M66.5315173,68 C67.7402597,68 68.5080773,68.5354767 68.5080773,69.3736142 C68.5080773,69.940133 68.1507761,70.3980044 67.5882167,70.5532151 C68.2648084,70.6929047 68.6829268,71.2283814 68.6829268,71.9268293 C68.6829268,72.8580931 67.8847007,73.440133 66.6303453,73.440133 L64,73.440133 L64,68 L66.5315173,68 Z M66.4554957,70.1651885 C66.8432056,70.1651885 67.0788723,69.9634146 67.0788723,69.6219512 C67.0788723,69.2960089 66.8432056,69.1019956 66.4554957,69.1097561 L65.3911942,69.1097561 L65.3911942,70.1651885 L66.4554957,70.1651885 Z M66.4554957,72.3381375 C66.9420336,72.3381375 67.2461197,72.1208426 67.2461197,71.748337 C67.2461197,71.4068736 66.9420336,71.1895787 66.4554957,71.1973392 L65.3911942,71.1973392 L65.3911942,72.3381375 L66.4554957,72.3381375 Z M71.3512829,69.195122 C72.7044663,69.195122 73.6015204,70.0487805 73.6015204,71.3370288 C73.6015204,72.6330377 72.7044663,73.4866962 71.3512829,73.4866962 C69.9980995,73.4866962 69.1086475,72.6330377 69.1086475,71.3370288 C69.1086475,70.0487805 69.9980995,69.195122 71.3512829,69.195122 Z M71.3512829,70.3126386 C70.8267342,70.3126386 70.469433,70.7317073 70.469433,71.3525499 C70.469433,71.981153 70.8267342,72.4002217 71.3512829,72.4002217 C71.8834336,72.4002217 72.2407349,71.981153 72.2407349,71.3525499 C72.2407349,70.7317073 71.8834336,70.3126386 71.3512829,70.3126386 Z M77.0072854,69.1873614 C77.9043396,69.1873614 78.4973076,69.808204 78.4973076,70.7937916 L78.4973076,73.440133 L77.1517263,73.440133 L77.1517263,71.1895787 C77.1517263,70.7161863 76.8780488,70.421286 76.4523282,70.421286 C75.9961989,70.4290466 75.6997149,70.7472284 75.6464998,71.2206208 L75.6464998,73.440133 L74.2933164,73.440133 L74.2933164,69.2416851 L75.6464998,69.2416851 L75.6464998,69.924612 C75.9353817,69.443459 76.4067152,69.1873614 77.0072854,69.1873614 Z M82.0095027,69.2416851 L83.3550839,69.2416851 L83.3550839,73.0676275 C83.3550839,74.2549889 82.4504276,75 81.1200507,75 C80.3978461,75 79.7440608,74.767184 79.2803294,74.4567627 L79.751663,73.5022173 C80.1241685,73.7660754 80.5802978,73.9135255 81.0212227,73.9135255 C81.6369971,73.9135255 82.0095027,73.5953437 82.0095027,73.1064302 L82.0095027,72.6563193 C81.7434273,73.0133038 81.3481153,73.2073171 80.838771,73.2073171 C79.8124802,73.2073171 79.0826734,72.4002217 79.0826734,71.1818182 C79.0826734,69.9866962 79.7896737,69.195122 80.8083624,69.195122 C81.3253088,69.195122 81.7358252,69.3968958 82.0095027,69.7538803 L82.0095027,69.2416851 Z M81.1808679,72.1984479 C81.6750079,72.1984479 82.0095027,71.7949002 82.0095027,71.2206208 C82.0095027,70.6308204 81.6750079,70.2350333 81.1808679,70.2350333 C80.6791258,70.2350333 80.344631,70.6385809 80.344631,71.2206208 C80.344631,71.7949002 80.6791258,72.1984479 81.1808679,72.1984479 Z M86.1982895,69.1873614 C87.3310105,69.1873614 87.9923978,69.7461197 88,70.7084257 L88,73.440133 L86.6696231,73.440133 L86.6696231,72.9667406 C86.4035477,73.3159645 85.9854292,73.5022173 85.430472,73.5022173 C84.5486221,73.5022173 84.0240735,72.95898 84.0240735,72.1906874 C84.0240735,71.3913525 84.5790307,70.9334812 85.5977194,70.9179601 L86.6696231,70.9179601 L86.6696231,70.8713969 C86.6696231,70.4756098 86.4035477,70.2427938 85.8866012,70.2427938 C85.5445043,70.2427938 85.0959772,70.3592018 84.6550523,70.5764967 L84.2825467,69.6452328 C84.9287298,69.3503326 85.5216978,69.1873614 86.1982895,69.1873614 Z M85.8485904,72.5631929 C86.2515046,72.5631929 86.5859994,72.3381375 86.6696231,72.0199557 L86.6696231,71.6552106 L85.8637947,71.6552106 C85.483687,71.6552106 85.2936332,71.7949002 85.2936332,72.0898004 C85.2936332,72.3769401 85.4988914,72.5631929 85.8485904,72.5631929 Z" id="Bonga" fill="#FFFFFF"></path>
                    <path d="M91.4264257,69.008 C92.5136371,69.008 93.2408448,69.896 93.2408448,71.24 C93.2408448,72.56 92.5352374,73.432 91.455226,73.432 C90.9584207,73.432 90.5552164,73.216 90.2816135,72.824 L90.2816135,74.936 L89,74.936 L89,69.056 L90.2816135,69.056 L90.2816135,69.616 C90.5552164,69.224 90.9440206,69.008 91.4264257,69.008 Z M91.1096223,72.28 C91.6136276,72.28 91.9520312,71.848 91.9520312,71.208 C91.9520312,70.568 91.6136276,70.128 91.1096223,70.128 C90.6200171,70.128 90.2816135,70.568 90.2816135,71.208 C90.2816135,71.848 90.6200171,72.28 91.1096223,72.28 Z M95.7088022,69 C96.7816135,69 97.4080202,69.576 97.4152202,70.568 L97.4152202,73.384 L96.1552069,73.384 L96.1552069,72.896 C95.9032043,73.256 95.5072001,73.448 94.9815945,73.448 C94.1463857,73.448 93.6495804,72.888 93.6495804,72.096 C93.6495804,71.272 94.175186,70.8 95.1399962,70.784 L96.1552069,70.784 L96.1552069,70.736 C96.1552069,70.328 95.9032043,70.088 95.4135991,70.088 C95.0895957,70.088 94.6647912,70.208 94.2471868,70.432 L93.894383,69.472 C94.5063895,69.168 95.0679954,69 95.7088022,69 Z M95.3775987,72.48 C95.7592027,72.48 96.0760061,72.248 96.1552069,71.92 L96.1552069,71.544 L95.3919989,71.544 C95.0319951,71.544 94.8519931,71.688 94.8519931,71.992 C94.8519931,72.288 95.0463952,72.48 95.3775987,72.48 Z M100.329582,73.808 C100.034379,74.616 99.537574,75 98.8031662,75 C98.3639616,75 98.0039578,74.856 97.651154,74.552 L98.1839597,73.568 C98.3639616,73.736 98.5151632,73.808 98.7023651,73.808 C98.9183674,73.808 99.069569,73.696 99.1703701,73.48 L99.2639711,73.28 L97.651154,69.056 L98.968768,69.056 L99.8975778,71.872 L100.725587,69.056 L102,69.056 L100.329582,73.808 Z" id="pay" fill="#FFFFFF"></path>
                </g>
            </g>
        </g>
    </g>
</svg>