<?xml version="1.0" encoding="UTF-8"?>
<svg width="47px" height="42px" viewBox="0 0 47 42" version="1.1" xmlns="http://www.w3.org/2000/svg" xmlns:xlink="http://www.w3.org/1999/xlink">
    <!-- Generator: Sketch 48.2 (47327) - http://www.bohemiancoding.com/sketch -->
    <title>Group 12</title>
    <desc>Created with Sketch.</desc>
    <defs></defs>
    <g id="02-homescreen-for-you-slider" stroke="none" stroke-width="1" fill="none" fill-rule="evenodd" transform="translate(-584.000000, -226.000000)">
        <g id="Group-8" transform="translate(507.000000, 194.000000)">
            <g id="Group-12" transform="translate(78.000000, 32.000000)">
                <path d="M17.0764125,27.4152375 L24.51435,29.6701125 C24.5051625,29.7173625 24.4867875,29.7751125 24.4671,29.8223625 C24.2676,30.3618 23.860725,30.6649875 23.1979125,30.7699875 C20.752725,31.1584875 16.6971,30.9117375 16.6590375,30.9117375 C16.032975,30.873675 15.4935375,31.3474875 15.455475,31.97355 C15.4174125,32.5983 15.891225,33.13905 16.515975,33.1771125 C16.6971,33.1863 20.8564125,33.4422375 23.5575375,33.0064875 C26.238975,32.579925 27.0067875,30.22005 26.8650375,28.7329875 C26.8177875,28.2683625 26.5054125,27.8798625 26.0591625,27.7473 L17.7300375,25.2259875 C13.6166625,23.9843625 9.1069125,26.2786125 8.9166,26.3731125 C8.898225,26.3823 8.86935,26.3914875 8.8496625,26.411175 L0.5586,31.4236125 C0.0191625,31.745175 -0.1514625,32.4473625 0.1701,32.9868 C0.387975,33.3372375 0.7581,33.5367375 1.1466,33.5367375 C1.3461,33.5367375 1.5442875,33.4803 1.7346,33.3753 L9.9876,28.400925 C10.347225,28.2106125 13.9776,26.4768 17.0764125,27.4152375" id="Fill-10" fill="#FFFFFF"></path>
                <path d="M17.0764125,27.4152375 L24.51435,29.6701125 C24.5051625,29.7173625 24.4867875,29.7751125 24.4671,29.8223625 C24.2676,30.3618 23.860725,30.6649875 23.1979125,30.7699875 C20.752725,31.1584875 16.6971,30.9117375 16.6590375,30.9117375 C16.032975,30.873675 15.4935375,31.3474875 15.455475,31.97355 C15.4174125,32.5983 15.891225,33.13905 16.515975,33.1771125 C16.6971,33.1863 20.8564125,33.4422375 23.5575375,33.0064875 C26.238975,32.579925 27.0067875,30.22005 26.8650375,28.7329875 C26.8177875,28.2683625 26.5054125,27.8798625 26.0591625,27.7473 L17.7300375,25.2259875 C13.6166625,23.9843625 9.1069125,26.2786125 8.9166,26.3731125 C8.898225,26.3823 8.86935,26.3914875 8.8496625,26.411175 L0.5586,31.4236125 C0.0191625,31.745175 -0.1514625,32.4473625 0.1701,32.9868 C0.387975,33.3372375 0.7581,33.5367375 1.1466,33.5367375 C1.3461,33.5367375 1.5442875,33.4803 1.7346,33.3753 L9.9876,28.400925 C10.347225,28.2106125 13.9776,26.4768 17.0764125,27.4152375 Z" id="Stroke-12" stroke="#FFFFFF" stroke-width="0.5"></path>
                <path d="M45.4668375,25.5104063 C44.8119,24.3160313 42.7749,22.4115938 39.6865875,23.7765938 C36.7675875,25.0746563 30.5988375,28.0409063 30.5319,28.0684688 C29.962275,28.3440938 29.726025,29.0160938 30.00165,29.5857188 C30.2759625,30.1540313 30.9584625,30.3902813 31.5175875,30.1159688 C31.584525,30.0870938 37.7152125,27.1313438 40.6053375,25.8516563 C41.4295875,25.4815313 42.121275,25.4815313 42.7184625,25.8516563 C42.7368375,25.8608438 42.7473375,25.8700313 42.7657125,25.8805313 L27.3097125,37.2034688 C26.21115,38.0093438 24.8185875,38.3414063 23.48115,38.1327188 L9.6933375,35.9342813 C9.371775,35.8870313 9.0397125,35.9723438 8.7850875,36.1810313 L5.297775,39.0895313 C4.8134625,39.4872188 4.7478375,40.2077813 5.1547125,40.6907813 C5.381775,40.9559063 5.70465,41.0989688 6.0262125,41.0989688 C6.2834625,41.0989688 6.5380875,41.0136563 6.7559625,40.8325313 L9.8455875,38.2560938 L23.1307125,40.3784063 C25.064025,40.6907813 27.08265,40.1985938 28.6642125,39.0422813 L45.1544625,26.9699063 C45.5994,26.6286563 45.74115,26.0130938 45.4668375,25.5104063" id="Fill-14" fill="#FFFFFF"></path>
                <path d="M45.4668375,25.5104063 C44.8119,24.3160313 42.7749,22.4115938 39.6865875,23.7765938 C36.7675875,25.0746563 30.5988375,28.0409063 30.5319,28.0684688 C29.962275,28.3440938 29.726025,29.0160938 30.00165,29.5857188 C30.2759625,30.1540313 30.9584625,30.3902813 31.5175875,30.1159688 C31.584525,30.0870938 37.7152125,27.1313438 40.6053375,25.8516563 C41.4295875,25.4815313 42.121275,25.4815313 42.7184625,25.8516563 C42.7368375,25.8608438 42.7473375,25.8700313 42.7657125,25.8805313 L27.3097125,37.2034688 C26.21115,38.0093438 24.8185875,38.3414063 23.48115,38.1327188 L9.6933375,35.9342813 C9.371775,35.8870313 9.0397125,35.9723438 8.7850875,36.1810313 L5.297775,39.0895313 C4.8134625,39.4872188 4.7478375,40.2077813 5.1547125,40.6907813 C5.381775,40.9559063 5.70465,41.0989688 6.0262125,41.0989688 C6.2834625,41.0989688 6.5380875,41.0136563 6.7559625,40.8325313 L9.8455875,38.2560938 L23.1307125,40.3784063 C25.064025,40.6907813 27.08265,40.1985938 28.6642125,39.0422813 L45.1544625,26.9699063 C45.5994,26.6286563 45.74115,26.0130938 45.4668375,25.5104063 Z" id="Stroke-16" stroke="#FFFFFF" stroke-width="0.5"></path>
                <path d="M21.3215625,14.4993188 C22.1458125,13.6750688 23.2351875,13.2196313 24.402,13.2196313 C25.5661875,13.2196313 26.6555625,13.6750688 27.4798125,14.4993188 C29.176875,16.1950688 29.176875,18.9631313 27.4798125,20.6588813 C26.6555625,21.4831312 25.5661875,21.9385688 24.402,21.9385688 C23.2351875,21.9385688 22.1458125,21.4831312 21.3215625,20.6588813 C19.6245,18.9631313 19.6245,16.1950688 21.3215625,14.4993188 M24.402,24.2026313 C26.1725625,24.2026313 27.8315625,23.5109438 29.0915625,22.2601313 C31.6785,19.6731938 31.6785,15.4758188 29.0915625,12.8888812 C27.84075,11.6380687 26.1725625,10.9463813 24.402,10.9463813 C22.6288125,10.9463813 20.9698125,11.6380687 19.7098125,12.8888812 C17.1241875,15.4758188 17.1241875,19.6731938 19.7098125,22.2601313 C20.9698125,23.5109438 22.6288125,24.2026313 24.402,24.2026313" id="Fill-18" fill="#FFFFFF"></path>
                <path d="M21.3215625,14.4993188 C22.1458125,13.6750688 23.2351875,13.2196313 24.402,13.2196313 C25.5661875,13.2196313 26.6555625,13.6750688 27.4798125,14.4993188 C29.176875,16.1950688 29.176875,18.9631313 27.4798125,20.6588813 C26.6555625,21.4831312 25.5661875,21.9385688 24.402,21.9385688 C23.2351875,21.9385688 22.1458125,21.4831312 21.3215625,20.6588813 C19.6245,18.9631313 19.6245,16.1950688 21.3215625,14.4993188 Z M24.402,24.2026313 C26.1725625,24.2026313 27.8315625,23.5109438 29.0915625,22.2601313 C31.6785,19.6731938 31.6785,15.4758188 29.0915625,12.8888812 C27.84075,11.6380687 26.1725625,10.9463813 24.402,10.9463813 C22.6288125,10.9463813 20.9698125,11.6380687 19.7098125,12.8888812 C17.1241875,15.4758188 17.1241875,19.6731938 19.7098125,22.2601313 C20.9698125,23.5109438 22.6288125,24.2026313 24.402,24.2026313 Z" id="Stroke-20" stroke="#FFFFFF" stroke-width="0.5"></path>
                <path d="M30.133425,4.028325 C30.6833625,3.4783875 31.4131125,3.1752 32.1901125,3.1752 C32.9671125,3.1752 33.6968625,3.4783875 34.2468,4.028325 C35.3742375,5.1557625 35.3742375,7.0037625 34.2468,8.1312 C33.6968625,8.6811375 32.9671125,8.984325 32.1901125,8.984325 C31.4131125,8.984325 30.6833625,8.6811375 30.133425,8.1312 C29.0073,6.994575 29.0073,5.1557625 30.133425,4.028325 M32.180925,11.2497 C33.5643,11.2497 34.863675,10.70895 35.8388625,9.73245 C37.8574875,7.7151375 37.8574875,4.4352 35.8388625,2.4178875 C34.863675,1.4413875 33.5643,0.9006375 32.180925,0.9006375 C30.79755,0.9006375 29.4994875,1.4413875 28.5229875,2.4178875 C26.5043625,4.4352 26.5043625,7.7151375 28.5229875,9.73245 C29.4994875,10.7181375 30.8067375,11.2497 32.180925,11.2497" id="Fill-22" fill="#FFFFFF"></path>
                <path d="M30.133425,4.028325 C30.6833625,3.4783875 31.4131125,3.1752 32.1901125,3.1752 C32.9671125,3.1752 33.6968625,3.4783875 34.2468,4.028325 C35.3742375,5.1557625 35.3742375,7.0037625 34.2468,8.1312 C33.6968625,8.6811375 32.9671125,8.984325 32.1901125,8.984325 C31.4131125,8.984325 30.6833625,8.6811375 30.133425,8.1312 C29.0073,6.994575 29.0073,5.1557625 30.133425,4.028325 Z M32.180925,11.2497 C33.5643,11.2497 34.863675,10.70895 35.8388625,9.73245 C37.8574875,7.7151375 37.8574875,4.4352 35.8388625,2.4178875 C34.863675,1.4413875 33.5643,0.9006375 32.180925,0.9006375 C30.79755,0.9006375 29.4994875,1.4413875 28.5229875,2.4178875 C26.5043625,4.4352 26.5043625,7.7151375 28.5229875,9.73245 C29.4994875,10.7181375 30.8067375,11.2497 32.180925,11.2497 Z" id="Stroke-24" stroke="#FFFFFF" stroke-width="0.5"></path>
            </g>
        </g>
    </g>
</svg>