<?xml version="1.0" encoding="UTF-8"?>
<svg width="30px" height="32px" viewBox="0 0 30 32" version="1.1" xmlns="http://www.w3.org/2000/svg" xmlns:xlink="http://www.w3.org/1999/xlink">
    <!-- Generator: Sketch 48.2 (47327) - http://www.bohemiancoding.com/sketch -->
    <title>Group 15</title>
    <desc>Created with Sketch.</desc>
    <defs></defs>
    <g id="03-homescreen-for-your-business" stroke="none" stroke-width="1" fill="none" fill-rule="evenodd" transform="translate(-809.000000, -246.000000)">
        <g id="Group-10" transform="translate(727.000000, 197.000000)" fill="#FFFFFF">
            <g id="Group-15" transform="translate(82.000000, 49.000000)">
                <path d="M10.0109176,22.2628706 L8.22550588,22.2628706 C7.88574118,22.2628706 7.60903529,22.5395765 7.60903529,22.8784 C7.60903529,23.2181647 7.88574118,23.4939294 8.22550588,23.4939294 L10.0109176,23.4939294 C10.3497412,23.4939294 10.6255059,23.2181647 10.6255059,22.8784 C10.6255059,22.5395765 10.3497412,22.2628706 10.0109176,22.2628706" id="Fill-29"></path>
                <path d="M10.9952941,24.7256471 L8.22541176,24.7256471 C7.88564706,24.7256471 7.60988235,25.0014118 7.60988235,25.3411765 C7.60988235,25.6809412 7.88564706,25.9567059 8.22541176,25.9567059 L10.9952941,25.9567059 C11.3350588,25.9567059 11.6108235,25.6809412 11.6108235,25.3411765 C11.6108235,25.0014118 11.3350588,24.7256471 10.9952941,24.7256471" id="Fill-31"></path>
                <path d="M9.45665882,10.6069647 C9.11783529,10.6069647 8.84112941,10.3312 8.84112941,9.99143529 C8.84112941,9.65167059 9.11783529,9.37590588 9.45665882,9.37590588 C9.61854118,9.37590588 9.77101176,9.43802353 9.88677647,9.55096471 C10.1296,9.78814118 10.5192471,9.78343529 10.7573647,9.54061176 C10.9945412,9.29684706 10.9898353,8.9072 10.7470118,8.67002353 C10.5521882,8.47990588 10.3225412,8.33778824 10.0721882,8.24931765 L10.0721882,8.14484706 C10.0721882,7.80414118 9.79642353,7.52931765 9.45665882,7.52931765 C9.11689412,7.52931765 8.84112941,7.80414118 8.84112941,8.14484706 L8.84112941,8.25025882 C8.12489412,8.50437647 7.61007059,9.18861176 7.61007059,9.99143529 C7.61007059,11.0097882 8.43830588,11.8380235 9.45665882,11.8380235 C9.79548235,11.8380235 10.0721882,12.1147294 10.0721882,12.4535529 C10.0721882,12.7933176 9.79548235,13.0690824 9.45665882,13.0690824 C9.28065882,13.0690824 9.11971765,12.9975529 9.00112941,12.8676706 C8.77148235,12.6163765 8.38277647,12.5975529 8.13148235,12.8262588 C7.87924706,13.0549647 7.86136471,13.4446118 8.09007059,13.6959059 C8.29712941,13.9236706 8.55689412,14.0930824 8.84112941,14.1937882 L8.84112941,14.3001412 C8.84112941,14.6408471 9.11689412,14.9166118 9.45665882,14.9166118 C9.79642353,14.9166118 10.0721882,14.6408471 10.0721882,14.3001412 L10.0721882,14.1947294 C10.7884235,13.9406118 11.3032471,13.2563765 11.3032471,12.4535529 C11.3032471,11.4352 10.4750118,10.6069647 9.45665882,10.6069647" id="Fill-33"></path>
                <path d="M14.9355294,7.52884706 L13.1510588,7.52884706 C12.8103529,7.52884706 12.5345882,7.80555294 12.5345882,8.14437647 C12.5345882,8.4832 12.8103529,8.75990588 13.1510588,8.75990588 L14.9355294,8.75990588 C15.2752941,8.75990588 15.5510588,8.4832 15.5510588,8.14437647 C15.5510588,7.80555294 15.2752941,7.52884706 14.9355294,7.52884706" id="Fill-35"></path>
                <path d="M17.3978353,7.52884706 C17.0590118,7.52884706 16.7823059,7.80555294 16.7823059,8.14437647 C16.7823059,8.4832 17.0590118,8.75990588 17.3978353,8.75990588 C17.7376,8.75990588 18.0133647,8.4832 18.0133647,8.14437647 C18.0133647,7.80555294 17.7376,7.52884706 17.3978353,7.52884706" id="Fill-37"></path>
                <path d="M13.9502118,9.99124706 L13.1502118,9.99124706 C12.8104471,9.99124706 12.5346824,10.2670118 12.5346824,10.6067765 C12.5346824,10.9465412 12.8104471,11.2223059 13.1502118,11.2223059 L13.9502118,11.2223059 C14.2899765,11.2223059 14.5657412,10.9465412 14.5657412,10.6067765 C14.5657412,10.2670118 14.2899765,9.99124706 13.9502118,9.99124706" id="Fill-39"></path>
                <path d="M18.6910118,9.99124706 L16.4133647,9.99124706 C16.0736,9.99124706 15.7978353,10.2670118 15.7978353,10.6067765 C15.7978353,10.9465412 16.0736,11.2223059 16.4133647,11.2223059 L18.6910118,11.2223059 C19.0307765,11.2223059 19.3065412,10.9465412 19.3065412,10.6067765 C19.3065412,10.2670118 19.0307765,9.99124706 18.6910118,9.99124706" id="Fill-41"></path>
                <path d="M15.9208471,12.4537412 L13.1509647,12.4537412 C12.8102588,12.4537412 12.5344941,12.7295059 12.5344941,13.0692706 C12.5344941,13.4090353 12.8102588,13.6848 13.1509647,13.6848 L15.9208471,13.6848 C16.2606118,13.6848 16.5363765,13.4090353 16.5363765,13.0692706 C16.5363765,12.7295059 16.2606118,12.4537412 15.9208471,12.4537412" id="Fill-43"></path>
                <path d="M18.6910118,12.4537412 L18.3832471,12.4537412 C18.0434824,12.4537412 17.7677176,12.7295059 17.7677176,13.0692706 C17.7677176,13.4090353 18.0434824,13.6848 18.3832471,13.6848 L18.6910118,13.6848 C19.0307765,13.6848 19.3065412,13.4090353 19.3065412,13.0692706 C19.3065412,12.7295059 19.0307765,12.4537412 18.6910118,12.4537412" id="Fill-45"></path>
                <path d="M12.5347765,16.1473882 L8.22512941,16.1473882 C7.88630588,16.1473882 7.61054118,16.4231529 7.61054118,16.7629176 C7.61054118,17.1026824 7.88630588,17.3784471 8.22512941,17.3784471 L12.5347765,17.3784471 C12.8745412,17.3784471 13.1503059,17.1026824 13.1503059,16.7629176 C13.1503059,16.4231529 12.8745412,16.1473882 12.5347765,16.1473882" id="Fill-47"></path>
                <path d="M14.2645647,18.6098824 L8.22503529,18.6098824 C7.88621176,18.6098824 7.61044706,18.8856471 7.61044706,19.2254118 C7.61044706,19.5651765 7.88621176,19.8409412 8.22503529,19.8409412 L14.2645647,19.8409412 C14.6043294,19.8409412 14.8800941,19.5651765 14.8800941,19.2254118 C14.8800941,18.8856471 14.6043294,18.6098824 14.2645647,18.6098824" id="Fill-49"></path>
                <path d="M15.0651294,24.7256471 C14.3856,24.7256471 13.8331294,24.1731765 13.8331294,23.4945882 C13.8331294,22.816 14.3856,22.2635294 15.0651294,22.2635294 C15.7437176,22.2635294 16.2961882,22.816 16.2961882,23.4945882 C16.2961882,24.1731765 15.7437176,24.7256471 15.0651294,24.7256471 M15.0651294,21.0324706 C13.7070118,21.0324706 12.6020706,22.1364706 12.6020706,23.4945882 C12.6020706,24.8517647 13.7070118,25.9567059 15.0651294,25.9567059 C16.4223059,25.9567059 17.5272471,24.8517647 17.5272471,23.4945882 C17.5272471,22.1364706 16.4223059,21.0324706 15.0651294,21.0324706" id="Fill-51"></path>
                <path d="M20.2002824,30.2912941 L19.7268706,28.5228235 L28.0515765,26.2912941 L28.5259294,28.0607059 L20.2002824,30.2912941 Z M17.2393412,16.5736471 L16.3847529,17.4809412 L15.8115765,16.9077647 C15.6948706,16.7910588 15.6318118,16.6367059 15.6318118,16.4729412 C15.6318118,16.3082353 15.6958118,16.1538824 15.8115765,16.0371765 C15.9282824,15.9214118 16.0826353,15.8574118 16.2464,15.8574118 C16.4111059,15.8574118 16.5664,15.9214118 16.6821647,16.0371765 C16.6849882,16.04 17.2393412,16.5736471 17.2393412,16.5736471 Z M6.37816471,27.1882353 L6.37816471,6.29788235 L16.2285176,6.29788235 C16.5692235,6.29788235 16.8440471,6.02211765 16.8440471,5.68235294 L16.8440471,3.83482353 L18.6906353,3.83482353 C19.0313412,3.83482353 19.3071059,3.55905882 19.3071059,3.21929412 C19.3071059,2.87952941 19.0313412,2.60376471 18.6906353,2.60376471 L16.9504,2.60376471 C17.2035765,1.88752941 17.8887529,1.37270588 18.6906353,1.37270588 C19.1838118,1.37270588 19.6478118,1.56470588 19.9960471,1.91388235 C20.3452235,2.26305882 20.5372235,2.72611765 20.5372235,3.21929412 L20.5372235,18.0362353 L17.5480471,15.1618824 C17.1998118,14.8164706 16.7376941,14.6254118 16.2473412,14.6254118 C15.7532235,14.6254118 15.2892235,14.8174118 14.9409882,15.1665882 C14.5918118,15.5157647 14.3998118,15.9788235 14.3998118,16.472 C14.3998118,16.9661176 14.5918118,17.4291765 14.9409882,17.7783529 L18.4035765,21.2409412 C18.5673412,21.4414118 20.2341647,23.5477647 20.7922824,26.9623529 L19.9489882,27.1882353 L6.37816471,27.1882353 Z M1.45392941,5.06682353 L1.45392941,3.21929412 C1.45392941,2.20094118 2.28216471,1.37270588 3.30051765,1.37270588 L16.2294588,1.37270588 C15.8426353,1.88752941 15.6129882,2.52752941 15.6129882,3.21929412 L15.6129882,5.06682353 L1.45392941,5.06682353 Z M21.3946353,20.0475294 C21.6214588,19.9515294 21.7692235,19.7284706 21.7692235,19.4818824 L21.7692235,11.1016471 C22.7678118,12.6922353 23.6224,14.6498824 24.2784,16.8644706 C25.0040471,19.3096471 25.2788706,21.3651765 25.3231059,21.9505882 C25.4520471,23.608 25.4247529,25.0395294 25.3974588,25.7275294 L21.9875765,26.6414118 C21.3306353,22.8070588 19.4115765,20.5256471 19.3259294,20.4249412 C19.3165176,20.4127059 17.2553412,18.3524706 17.2553412,18.3524706 L18.1278118,17.4272941 L20.7273412,19.9251765 C20.9042824,20.0964706 21.1668706,20.1444706 21.3946353,20.0475294 Z M29.8736941,28.3364706 L29.0821647,25.3783529 C29.0398118,25.2202353 28.9362824,25.0865882 28.7951059,25.0047059 C28.6529882,24.9228235 28.4854588,24.9011765 28.3273412,24.9435294 L26.6416941,25.3952941 C26.6614588,24.6009412 26.6642824,23.3237647 26.5513412,21.8564706 C26.3969882,19.8536471 25.1885176,13.2522353 21.7692235,8.97176471 L21.7692235,3.21929412 C21.7692235,2.39764706 21.4482824,1.62494118 20.8666353,1.04329412 C20.2859294,0.461647059 19.5132235,0.141647059 18.6906353,0.141647059 L3.30051765,0.141647059 C1.60357647,0.141647059 0.221929412,1.52235294 0.221929412,3.21929412 L0.221929412,5.68235294 C0.221929412,6.02211765 0.497694118,6.29788235 0.8384,6.29788235 L5.14804706,6.29788235 L5.14804706,27.8037647 C5.14804706,28.1435294 5.42287059,28.4192941 5.76263529,28.4192941 L18.4242824,28.4192941 L19.1706353,31.2042353 C19.2129882,31.3623529 19.3165176,31.4969412 19.4576941,31.5778824 C19.5518118,31.6324706 19.6581647,31.6607059 19.7654588,31.6607059 C19.8191059,31.6607059 19.8718118,31.6541176 19.9245176,31.64 L29.4379294,29.0903529 C29.7673412,29.0028235 29.9621647,28.6649412 29.8736941,28.3364706 Z" id="Fill-53"></path>
            </g>
        </g>
    </g>
</svg>