<?xml version="1.0" encoding="UTF-8"?>
<svg width="27px" height="32px" viewBox="0 0 27 32" version="1.1" xmlns="http://www.w3.org/2000/svg" xmlns:xlink="http://www.w3.org/1999/xlink">
    <!-- Generator: Sketch 48.2 (47327) - http://www.bohemiancoding.com/sketch -->
    <title>Page 1</title>
    <desc>Created with Sketch.</desc>
    <defs>
        <polygon id="path-1" points="0 0 26.6666667 0 26.6666667 32 0 32"></polygon>
    </defs>
    <g id="03-homescreen-for-your-business" stroke="none" stroke-width="1" fill="none" fill-rule="evenodd" transform="translate(-531.000000, -242.000000)">
        <g id="Group-12" transform="translate(449.000000, 197.000000)">
            <g id="Page-1" transform="translate(82.000000, 45.000000)">
                <mask id="mask-2" fill="white">
                    <use xlink:href="#path-1"></use>
                </mask>
                <g id="Clip-2"></g>
                <path d="M6.15420169,7.05277612 C6.15420169,10.9464493 8.64315221,16.6664085 13.3333333,16.6664085 C17.9426293,16.6664085 20.512465,10.9464493 20.512465,7.05277612 C20.512465,3.15910291 17.2990149,0 13.3333333,0 C9.36765173,0 6.15420169,3.15910291 6.15420169,7.05277612 M25.7711529,23.0600993 C24.3348644,21.2326867 22.5981454,20.0463331 20.1091949,19.3737281 L17.7785481,27.3323241 C17.7785481,28.0657677 17.1626657,28.6662676 16.4104342,28.6662676 C15.6593581,28.6662676 15.0434757,28.0657677 15.0434757,27.3323241 L15.0434757,20.9994719 C15.0434757,20.0801324 14.2773782,19.333169 13.3333333,19.333169 C12.390444,19.333169 11.6243464,20.0801324 11.6243464,20.9994719 L11.6243464,27.3323241 C11.6243464,28.0657677 11.008464,28.6662676 10.257388,28.6662676 C9.50515643,28.6662676 8.88927406,28.0657677 8.88927406,27.3323241 L6.55747176,19.3737281 C4.06852125,20.053093 2.33180229,21.2326867 0.896669267,23.0600993 C0.329317965,23.7800232 0.0207990294,25.2255043 0,25.9995071 C0.00693300979,26.2000493 0,26.4332641 0,26.6664789 L0,27.9992958 L0,29.3332394 C0,30.80576 1.22483173,32 2.73507236,32 L23.9315943,32 C25.4429904,32 26.6666667,30.80576 26.6666667,29.3332394 L26.6666667,27.9992958 L26.6666667,26.6664789 C26.6666667,26.4332641 26.6597337,26.2000493 26.6666667,25.9995071 C26.6458676,25.2255043 26.3385042,23.7788966 25.7711529,23.0600993" id="Fill-1" fill="#FFFFFF" mask="url(#mask-2)"></path>
            </g>
        </g>
    </g>
</svg>