<?xml version="1.0" encoding="UTF-8"?>
<svg width="40px" height="42px" viewBox="0 0 40 42" version="1.1" xmlns="http://www.w3.org/2000/svg" xmlns:xlink="http://www.w3.org/1999/xlink">
    <!-- Generator: Sketch 48.2 (47327) - http://www.bohemiancoding.com/sketch -->
    <title>Group 15</title>
    <desc>Created with Sketch.</desc>
    <defs></defs>
    <g id="02-homescreen-for-you-slider" stroke="none" stroke-width="1" fill="none" fill-rule="evenodd" transform="translate(-847.000000, -230.000000)">
        <g id="Group-5" transform="translate(783.000000, 194.000000)" fill="#FFFFFF">
            <g id="Group-15" transform="translate(64.000000, 36.000000)">
                <path d="M13.1393294,29.2200176 L10.7959765,29.2200176 C10.3500353,29.2200176 9.98685882,29.5831941 9.98685882,30.0279 C9.98685882,30.4738412 10.3500353,30.8357824 10.7959765,30.8357824 L13.1393294,30.8357824 C13.5840353,30.8357824 13.9459765,30.4738412 13.9459765,30.0279 C13.9459765,29.5831941 13.5840353,29.2200176 13.1393294,29.2200176" id="Fill-29"></path>
                <path d="M14.4313235,32.4524118 L10.7958529,32.4524118 C10.3499118,32.4524118 9.98797059,32.8143529 9.98797059,33.2602941 C9.98797059,33.7062353 10.3499118,34.0681765 10.7958529,34.0681765 L14.4313235,34.0681765 C14.8772647,34.0681765 15.2392059,33.7062353 15.2392059,33.2602941 C15.2392059,32.8143529 14.8772647,32.4524118 14.4313235,32.4524118" id="Fill-31"></path>
                <path d="M12.4118647,13.9216412 C11.9671588,13.9216412 11.6039824,13.5597 11.6039824,13.1137588 C11.6039824,12.6678176 11.9671588,12.3058765 12.4118647,12.3058765 C12.6243353,12.3058765 12.8244529,12.3874059 12.9763941,12.5356412 C13.2951,12.8469353 13.8065118,12.8407588 14.1190412,12.5220529 C14.4303353,12.2021118 14.4241588,11.6907 14.1054529,11.3794059 C13.8497471,11.1298765 13.5483353,10.9433471 13.2197471,10.8272294 L13.2197471,10.6901118 C13.2197471,10.2429353 12.8578059,9.88222941 12.4118647,9.88222941 C11.9659235,9.88222941 11.6039824,10.2429353 11.6039824,10.6901118 L11.6039824,10.8284647 C10.6639235,11.1619941 9.98821765,12.0600529 9.98821765,13.1137588 C9.98821765,14.4503471 11.0752765,15.5374059 12.4118647,15.5374059 C12.8565706,15.5374059 13.2197471,15.9005824 13.2197471,16.3452882 C13.2197471,16.7912294 12.8565706,17.1531706 12.4118647,17.1531706 C12.1808647,17.1531706 11.9696294,17.0592882 11.8139824,16.8888176 C11.5125706,16.5589941 11.0023941,16.5342882 10.6725706,16.8344647 C10.3415118,17.1346412 10.3180412,17.6460529 10.6182176,17.9758765 C10.8899824,18.2748176 11.2309235,18.4971706 11.6039824,18.6293471 L11.6039824,18.7689353 C11.6039824,19.2161118 11.9659235,19.5780529 12.4118647,19.5780529 C12.8578059,19.5780529 13.2197471,19.2161118 13.2197471,18.7689353 L13.2197471,18.6305824 C14.1598059,18.2970529 14.8355118,17.3989941 14.8355118,16.3452882 C14.8355118,15.0087 13.7484529,13.9216412 12.4118647,13.9216412" id="Fill-33"></path>
                <path d="M19.6028824,9.88161176 L17.2607647,9.88161176 C16.8135882,9.88161176 16.4516471,10.2447882 16.4516471,10.6894941 C16.4516471,11.1342 16.8135882,11.4973765 17.2607647,11.4973765 L19.6028824,11.4973765 C20.0488235,11.4973765 20.4107647,11.1342 20.4107647,10.6894941 C20.4107647,10.2447882 20.0488235,9.88161176 19.6028824,9.88161176" id="Fill-35"></path>
                <path d="M22.8346588,9.88161176 C22.3899529,9.88161176 22.0267765,10.2447882 22.0267765,10.6894941 C22.0267765,11.1342 22.3899529,11.4973765 22.8346588,11.4973765 C23.2806,11.4973765 23.6425412,11.1342 23.6425412,10.6894941 C23.6425412,10.2447882 23.2806,9.88161176 22.8346588,9.88161176" id="Fill-37"></path>
                <path d="M18.3096529,13.1135118 L17.2596529,13.1135118 C16.8137118,13.1135118 16.4517706,13.4754529 16.4517706,13.9213941 C16.4517706,14.3673353 16.8137118,14.7292765 17.2596529,14.7292765 L18.3096529,14.7292765 C18.7555941,14.7292765 19.1175353,14.3673353 19.1175353,13.9213941 C19.1175353,13.4754529 18.7555941,13.1135118 18.3096529,13.1135118" id="Fill-39"></path>
                <path d="M24.5319529,13.1135118 L21.5425412,13.1135118 C21.0966,13.1135118 20.7346588,13.4754529 20.7346588,13.9213941 C20.7346588,14.3673353 21.0966,14.7292765 21.5425412,14.7292765 L24.5319529,14.7292765 C24.9778941,14.7292765 25.3398353,14.3673353 25.3398353,13.9213941 C25.3398353,13.4754529 24.9778941,13.1135118 24.5319529,13.1135118" id="Fill-41"></path>
                <path d="M20.8961118,16.3455353 L17.2606412,16.3455353 C16.8134647,16.3455353 16.4515235,16.7074765 16.4515235,17.1534176 C16.4515235,17.5993588 16.8134647,17.9613 17.2606412,17.9613 L20.8961118,17.9613 C21.3420529,17.9613 21.7039941,17.5993588 21.7039941,17.1534176 C21.7039941,16.7074765 21.3420529,16.3455353 20.8961118,16.3455353" id="Fill-43"></path>
                <path d="M24.5319529,16.3455353 L24.1280118,16.3455353 C23.6820706,16.3455353 23.3201294,16.7074765 23.3201294,17.1534176 C23.3201294,17.5993588 23.6820706,17.9613 24.1280118,17.9613 L24.5319529,17.9613 C24.9778941,17.9613 25.3398353,17.5993588 25.3398353,17.1534176 C25.3398353,16.7074765 24.9778941,16.3455353 24.5319529,16.3455353" id="Fill-45"></path>
                <path d="M16.4518941,21.1934471 L10.7954824,21.1934471 C10.3507765,21.1934471 9.98883529,21.5553882 9.98883529,22.0013294 C9.98883529,22.4472706 10.3507765,22.8092118 10.7954824,22.8092118 L16.4518941,22.8092118 C16.8978353,22.8092118 17.2597765,22.4472706 17.2597765,22.0013294 C17.2597765,21.5553882 16.8978353,21.1934471 16.4518941,21.1934471" id="Fill-47"></path>
                <path d="M18.7222412,24.4254706 L10.7953588,24.4254706 C10.3506529,24.4254706 9.98871176,24.7874118 9.98871176,25.2333529 C9.98871176,25.6792941 10.3506529,26.0412353 10.7953588,26.0412353 L18.7222412,26.0412353 C19.1681824,26.0412353 19.5301235,25.6792941 19.5301235,25.2333529 C19.5301235,24.7874118 19.1681824,24.4254706 18.7222412,24.4254706" id="Fill-49"></path>
                <path d="M19.7729824,32.4524118 C18.8811,32.4524118 18.1559824,31.7272941 18.1559824,30.8366471 C18.1559824,29.946 18.8811,29.2208824 19.7729824,29.2208824 C20.6636294,29.2208824 21.3887471,29.946 21.3887471,30.8366471 C21.3887471,31.7272941 20.6636294,32.4524118 19.7729824,32.4524118 M19.7729824,27.6051176 C17.9904529,27.6051176 16.5402176,29.0541176 16.5402176,30.8366471 C16.5402176,32.6179412 17.9904529,34.0681765 19.7729824,34.0681765 C21.5542765,34.0681765 23.0045118,32.6179412 23.0045118,30.8366471 C23.0045118,29.0541176 21.5542765,27.6051176 19.7729824,27.6051176" id="Fill-51"></path>
                <path d="M26.5128706,39.7573235 L25.8915176,37.4362059 L36.8176941,34.5073235 L37.4402824,36.8296765 L26.5128706,39.7573235 Z M22.6266353,21.7529118 L21.5049882,22.9437353 L20.7526941,22.1914412 C20.5995176,22.0382647 20.5167529,21.8356765 20.5167529,21.6207353 C20.5167529,21.4045588 20.6007529,21.2019706 20.7526941,21.0487941 C20.9058706,20.8968529 21.1084588,20.8128529 21.3234,20.8128529 C21.5395765,20.8128529 21.7434,20.8968529 21.8953412,21.0487941 C21.8990471,21.0525 22.6266353,21.7529118 22.6266353,21.7529118 Z M8.37134118,35.6845588 L8.37134118,8.26597059 L21.2999294,8.26597059 C21.7471059,8.26597059 22.1078118,7.90402941 22.1078118,7.45808824 L22.1078118,5.03320588 L24.5314588,5.03320588 C24.9786353,5.03320588 25.3405765,4.67126471 25.3405765,4.22532353 C25.3405765,3.77938235 24.9786353,3.41744118 24.5314588,3.41744118 L22.2474,3.41744118 C22.5796941,2.47738235 23.4789882,1.80167647 24.5314588,1.80167647 C25.1787529,1.80167647 25.7877529,2.05367647 26.2448118,2.51197059 C26.7031059,2.97026471 26.9551059,3.57802941 26.9551059,4.22532353 L26.9551059,23.6725588 L23.0318118,19.8999706 C22.5747529,19.4466176 21.9682235,19.1958529 21.3246353,19.1958529 C20.6761059,19.1958529 20.0671059,19.4478529 19.6100471,19.9061471 C19.1517529,20.3644412 18.8997529,20.9722059 18.8997529,21.6195 C18.8997529,22.2680294 19.1517529,22.8757941 19.6100471,23.3340882 L24.1546941,27.8787353 C24.3696353,28.1418529 26.5573412,30.9064412 27.2898706,35.3880882 L26.1830471,35.6845588 L8.37134118,35.6845588 Z M1.90828235,6.65020588 L1.90828235,4.22532353 C1.90828235,2.88873529 2.99534118,1.80167647 4.33192941,1.80167647 L21.3011647,1.80167647 C20.7934588,2.47738235 20.4920471,3.31738235 20.4920471,4.22532353 L20.4920471,6.65020588 L1.90828235,6.65020588 Z M28.0804588,26.3123824 C28.3781647,26.1863824 28.5721059,25.8936176 28.5721059,25.5699706 L28.5721059,14.5709118 C29.8827529,16.6585588 31.0044,19.2279706 31.8654,22.1346176 C32.8178118,25.3439118 33.1785176,28.0417941 33.2365765,28.8101471 C33.4058118,30.9855 33.3699882,32.8643824 33.3341647,33.7673824 L28.8586941,34.9668529 C27.9964588,29.9342647 25.4776941,26.9399118 25.3652824,26.8077353 C25.3529294,26.7916765 22.6476353,24.0876176 22.6476353,24.0876176 L23.7927529,22.8733235 L27.2046353,26.1517941 C27.4368706,26.3766176 27.7815176,26.4396176 28.0804588,26.3123824 Z M39.2092235,37.1916176 L38.1703412,33.3090882 C38.1147529,33.1015588 37.9788706,32.9261471 37.7935765,32.8186765 C37.6070471,32.7112059 37.3871647,32.6827941 37.1796353,32.7383824 L34.9672235,33.3313235 C34.9931647,32.2887353 34.9968706,30.6124412 34.8486353,28.6866176 C34.6460471,26.0579118 33.0599294,17.3935588 28.5721059,11.7754412 L28.5721059,4.22532353 C28.5721059,3.14691176 28.1508706,2.13273529 27.3874588,1.36932353 C26.6252824,0.605911765 25.6111059,0.185911765 24.5314588,0.185911765 L4.33192941,0.185911765 C2.10469412,0.185911765 0.291282353,1.99808824 0.291282353,4.22532353 L0.291282353,7.45808824 C0.291282353,7.90402941 0.653223529,8.26597059 1.1004,8.26597059 L6.75681176,8.26597059 L6.75681176,36.4924412 C6.75681176,36.9383824 7.11751765,37.3003235 7.56345882,37.3003235 L24.1818706,37.3003235 L25.1614588,40.9555588 C25.2170471,41.1630882 25.3529294,41.3397353 25.5382235,41.4459706 C25.6617529,41.5176176 25.8013412,41.5546765 25.9421647,41.5546765 C26.0125765,41.5546765 26.0817529,41.5460294 26.1509294,41.5275 L38.6372824,38.1810882 C39.0696353,38.0662059 39.3253412,37.6227353 39.2092235,37.1916176 Z" id="Fill-53"></path>
            </g>
        </g>
    </g>
</svg>