<svg xmlns="http://www.w3.org/2000/svg" xmlns:xlink="http://www.w3.org/1999/xlink" viewBox="0 0 1302 633.27"><defs><style>.cls-1,.cls-10,.cls-11,.cls-12,.cls-13,.cls-14,.cls-2,.cls-3,.cls-4,.cls-5,.cls-6,.cls-7,.cls-8,.cls-9{fill:none;}.cls-2{stroke:#000;}.cls-10,.cls-11,.cls-12,.cls-13,.cls-14,.cls-2,.cls-3,.cls-4,.cls-5,.cls-6,.cls-7,.cls-8,.cls-9{stroke-miterlimit:10;}.cls-10,.cls-11,.cls-12,.cls-13,.cls-14,.cls-3,.cls-4,.cls-5,.cls-6,.cls-7,.cls-8,.cls-9{stroke-width:2px;}.cls-3{stroke:url(#linear-gradient);}.cls-4{stroke:url(#linear-gradient-2);}.cls-5{stroke:url(#linear-gradient-3);}.cls-6{stroke:url(#linear-gradient-4);}.cls-7{stroke:url(#linear-gradient-5);}.cls-8{stroke:url(#linear-gradient-6);}.cls-9{stroke:url(#linear-gradient-7);}.cls-10{stroke-dasharray:4.83 4.83;stroke:url(#linear-gradient-8);}.cls-11{stroke:url(#linear-gradient-9);}.cls-12{stroke:url(#linear-gradient-10);}.cls-13{stroke:url(#linear-gradient-11);}.cls-14{stroke:url(#linear-gradient-12);}.cls-15{fill:#ff277a;}.cls-16{fill:url(#linear-gradient-13);}.cls-17{fill:url(#linear-gradient-14);}.cls-18{clip-path:url(#clip-path);}.cls-19{fill:#e7eced;}.cls-20{fill:url(#linear-gradient-15);}</style><linearGradient id="linear-gradient" x1="130.74" y1="405.7" x2="130.74" y2="626.59" gradientUnits="userSpaceOnUse"><stop offset="0" stop-color="#de1f5f"/><stop offset="1" stop-color="#a70d41"/></linearGradient><linearGradient id="linear-gradient-2" x1="211.36" y1="597.94" x2="235.68" y2="597.94" xlink:href="#linear-gradient"/><linearGradient id="linear-gradient-3" x1="233.68" y1="110.18" x2="482.16" y2="110.18" xlink:href="#linear-gradient"/><linearGradient id="linear-gradient-4" x1="678.49" y1="607.62" x2="686.02" y2="607.62" xlink:href="#linear-gradient"/><linearGradient id="linear-gradient-5" x1="182.85" y1="516.8" x2="498.55" y2="516.8" xlink:href="#linear-gradient"/><linearGradient id="linear-gradient-6" x1="790.78" y1="519.49" x2="1302" y2="519.49" xlink:href="#linear-gradient"/><linearGradient id="linear-gradient-7" x1="1057.7" y1="515.86" x2="1059.7" y2="515.86" xlink:href="#linear-gradient"/><linearGradient id="linear-gradient-8" x1="1057.7" y1="569.07" x2="1059.7" y2="569.07" xlink:href="#linear-gradient"/><linearGradient id="linear-gradient-9" x1="1057.7" y1="619.86" x2="1059.7" y2="619.86" xlink:href="#linear-gradient"/><linearGradient id="linear-gradient-10" x1="913.01" y1="106.3" x2="1133.04" y2="106.3" xlink:href="#linear-gradient"/><linearGradient id="linear-gradient-11" x1="415.54" y1="198.68" x2="936.36" y2="198.68" xlink:href="#linear-gradient"/><linearGradient id="linear-gradient-12" x1="509.22" y1="513.09" x2="778.66" y2="513.09" xlink:href="#linear-gradient"/><linearGradient id="linear-gradient-13" x1="191.55" y1="598.75" x2="200.02" y2="598.75" xlink:href="#linear-gradient"/><linearGradient id="linear-gradient-14" x1="247.22" y1="598.75" x2="255.68" y2="598.75" xlink:href="#linear-gradient"/><clipPath id="clip-path"><rect class="cls-1" x="212.6" y="586.78" width="21.83" height="22.32"/></clipPath><linearGradient id="linear-gradient-15" x1="212.6" y1="596.59" x2="234.15" y2="596.59" xlink:href="#linear-gradient"/></defs><title>Line Art for bonga pay</title><g id="Layer_2" data-name="Layer 2"><g id="Layer_1-2" data-name="Layer 1"><path class="cls-2" d="M111.25,406.87"/><path class="cls-2" d="M1.94,509.23a3.88,3.88,0,0,0,2.53-4.89,76.07,76.07,0,0,1-2.82-32.73c4.8-37.21,37.26-65.13,74.78-64.9A74.18,74.18,0,0,1,108,413.87a75.13,75.13,0,0,1,43.35,67.88v13.08a3.73,3.73,0,0,0,.43,1.8l16.08,30.66c1.29,2.45,1.5,4.72.64,6.13s-3,2.27-5.75,2.27h-7.67a3.91,3.91,0,0,0-3.9,3.9v29.16a12.68,12.68,0,0,1-12.39,12.69l-22.43-3.34a3.86,3.86,0,0,0-3.09.9,4.14,4.14,0,0,0-1.33,3l0,19a18.61,18.61,0,0,0,2.2,8.94c5.23,9.6,20.86,25.21,58.55,8a8.15,8.15,0,0,0,4.73-7.42V580.25a3.37,3.37,0,0,1,3.37-3.37h80.73"/><path class="cls-3" d="M1.94,509.23a3.88,3.88,0,0,0,2.53-4.89,76.07,76.07,0,0,1-2.82-32.73c4.8-37.21,37.26-65.13,74.78-64.9A74.18,74.18,0,0,1,108,413.87a75.13,75.13,0,0,1,43.35,67.88v13.08a3.73,3.73,0,0,0,.43,1.8l16.08,30.66c1.29,2.45,1.5,4.72.64,6.13s-3,2.27-5.75,2.27h-7.67a3.91,3.91,0,0,0-3.9,3.9v29.16a12.68,12.68,0,0,1-12.39,12.69l-22.43-3.34a3.86,3.86,0,0,0-3.09.9,4.14,4.14,0,0,0-1.33,3l0,19a18.61,18.61,0,0,0,2.2,8.94c5.23,9.6,20.86,25.21,58.55,8a8.15,8.15,0,0,0,4.73-7.42V580.25a3.37,3.37,0,0,1,3.37-3.37h80.73"/><circle class="cls-4" cx="223.52" cy="597.94" r="11.16"/><path class="cls-2" d="M344.93,1.17"/><path class="cls-5" d="M481.16,179v-8.8a3.37,3.37,0,0,0-3.37-3.37h-4l-.74,0H414.43a3.37,3.37,0,0,0-3.37,3.37v34.62a8.45,8.45,0,0,1-4.73,7.42c-30.6,16-53.33,1.56-58.55-8a18.61,18.61,0,0,1-2.2-8.94l0-19a4.14,4.14,0,0,1,1.33-3,3.86,3.86,0,0,1,3.09-.9l22.43,3.34A12.68,12.68,0,0,0,384.85,163V133.89a3.91,3.91,0,0,1,3.9-3.9h7.67c2.79,0,4.85-.81,5.75-2.27s.64-3.69-.64-6.13L385.45,90.92a3.73,3.73,0,0,1-.43-1.8V76A75.13,75.13,0,0,0,341.67,8.16,74.18,74.18,0,0,0,310.11,1c-37.52-.23-70,27.69-74.78,64.9a76.07,76.07,0,0,0,2.82,32.73,3.88,3.88,0,0,1-2.53,4.89"/><path class="cls-6" d="M685.29,594.15s-13.06,13.06,0,27"/><path class="cls-7" d="M182.85,621.11h83.39a3.37,3.37,0,0,0,3.37-3.37V580.23a4.39,4.39,0,0,1,6.87-3.67,9.63,9.63,0,0,1,2.79,3.69c9.83,20.43,51.95,34.78,113.38,28.85,19.44-1.88,35.93-4.45,49.38-7.09a68.85,68.85,0,0,0,55.51-67.59q0-.09,0-.18V411.49"/><path class="cls-8" d="M791.78,436.85v101.5a82.54,82.54,0,0,0,22.51,56.79c22.53,23.78,39.58,37,99.16,37.14s105.2-53.81,105.2-104V516.86a2.25,2.25,0,0,1,2.25-2.25h78.48a3.37,3.37,0,0,1,3.37,3.37v92.5a8.21,8.21,0,0,0,4.84,7.47c37.66,17.09,75.1,1.51,80.33-8.08a18.61,18.61,0,0,0,2.2-8.94l0-19a4.14,4.14,0,0,0-1.33-3,3.86,3.86,0,0,0-3.09-.9l-22.43,3.34a12.68,12.68,0,0,1-12.39-12.69V539.59a3.91,3.91,0,0,0-3.9-3.9h-7.67c-2.79,0-4.85-.81-5.75-2.27s-.64-3.69.64-6.13l16.08-30.66a3.73,3.73,0,0,0,.43-1.8V481.74A75.13,75.13,0,0,1,1194,413.87a74.1,74.1,0,0,1,30.43-7.15c37.25-.77,69.91,26,75.62,62.87a76.27,76.27,0,0,1-2.54,34.75,3.88,3.88,0,0,0,2.53,4.89"/><line class="cls-9" x1="1058.7" y1="514.61" x2="1058.7" y2="517.11"/><line class="cls-10" x1="1058.7" y1="521.95" x2="1058.7" y2="616.19"/><line class="cls-11" x1="1058.7" y1="618.61" x2="1058.7" y2="621.11"/><path class="cls-12" d="M1073.59,162.53a10.36,10.36,0,0,1-20.57,1.79,2.21,2.21,0,0,0-2.17-1.79h-43.29a2.93,2.93,0,0,0-2.89,2.31,10.37,10.37,0,0,1-9.77,7.93,9.29,9.29,0,0,1-8.45-5.43l-2-4.24a2.79,2.79,0,0,0-2.51-1.59H950.76a8,8,0,0,1-6.69-4.61,12.16,12.16,0,0,1-1.24-6.64,9,9,0,0,1,9.05-7.75h139.5a17,17,0,0,0,16.32-12.2l24-81.49a7.12,7.12,0,0,0-6.82-9.13H913"/><path class="cls-13" d="M423.4,180.61h54.4a3.37,3.37,0,0,1,3.37,3.37V212a3.37,3.37,0,0,1-3.37,3.37H423.93a7.4,7.4,0,0,0-7.4,7.4h0c0,85,42.8,172.09,136.45,172.09l159-3.78c73.28-1.74,141.12-40.2,179.14-102.87,36.95-60.9,43.21-138.28,44.2-168.42a67.75,67.75,0,0,0-3.47-23.68L906.74,20.92q-.25-.74-.53-1.45C900.78,5.69,885-.88,871.05,4.17L854,10.36"/><path class="cls-14" d="M702.08,561.36A34.52,34.52,0,0,0,655.6,529a46,46,0,0,0-86.45,13.45,29.7,29.7,0,0,0-43.71,38.36l11.35,1H747.5a30.16,30.16,0,0,0,30.16-30.16V439.62a34.24,34.24,0,0,0-34.24-34.24H528.76a18.54,18.54,0,0,0-18.54,18.54l.06,158a12.27,12.27,0,0,0,12.27,12.27h76.13a10.3,10.3,0,0,1,9.35,6c2.35,5.11,3.57,12.89-4,21"/><path class="cls-15" d="M1066.29,522.22h3.38a2.13,2.13,0,0,1,2.28,2.28c0,.89-.25,1.68-1.1,1.94.53.12,1.15.74,1.15,2.11a2.14,2.14,0,0,1-2.33,2.45h-3.38Zm3.38,3.74c.9,0,1.39-.48,1.39-1.46a1.24,1.24,0,0,0-1.39-1.39h-2.48V526Zm0,4.15c.58,0,1.44-.16,1.44-1.58,0-.89-.43-1.68-1.44-1.68h-2.48v3.26Z"/><path class="cls-15" d="M1075.84,522.22h.89V531h-.89Z"/><path class="cls-15" d="M1080.81,522.22h.89v7.27c0,.63.4.62.74.62h3.67V531h-3.67c-.79,0-1.63-.16-1.63-1.51Z"/><path class="cls-15" d="M1089.9,522.22h.89v7.27c0,.63.4.62.74.62h3.67V531h-3.67c-.79,0-1.63-.16-1.63-1.51Z"/><circle class="cls-16" cx="195.78" cy="598.75" r="4.23"/><circle class="cls-17" cx="251.45" cy="598.75" r="4.23"/><g class="cls-18"><path class="cls-19" d="M220.17,604,217,605.71a3,3,0,0,0-.52.37,10.77,10.77,0,0,0,13.83,0,2.85,2.85,0,0,0-.57-.38L226.27,604a1.31,1.31,0,0,1-.73-1.18v-1.35a4.76,4.76,0,0,0,.33-.42,7.89,7.89,0,0,0,1.07-2.16,1.08,1.08,0,0,0,.77-1v-1.44a1.07,1.07,0,0,0-.36-.8v-2.08s.43-3.24-4-3.24-4,3.24-4,3.24v2.08a1.08,1.08,0,0,0-.36.8v1.44a1.09,1.09,0,0,0,.5.91,7.16,7.16,0,0,0,1.3,2.7v1.32a1.32,1.32,0,0,1-.68,1.15Zm0,0"/><path class="cls-20" d="M223.56,587.06a10.77,10.77,0,0,0-7.12,19,3.07,3.07,0,0,1,.51-.36l3.22-1.75a1.31,1.31,0,0,0,.68-1.15v-1.32a7.16,7.16,0,0,1-1.3-2.7,1.08,1.08,0,0,1-.5-.91v-1.44a1.08,1.08,0,0,1,.36-.8v-2.08s-.43-3.24,4-3.24,4,3.24,4,3.24v2.08a1.08,1.08,0,0,1,.36.8v1.44a1.08,1.08,0,0,1-.77,1,8,8,0,0,1-1.07,2.16c-.12.17-.23.31-.33.42v1.35a1.31,1.31,0,0,0,.72,1.18l3.44,1.72a2.81,2.81,0,0,1,.56.38,10.77,10.77,0,0,0-6.71-19Zm0,0"/></g></g></g></svg>